<svg xmlns="http://www.w3.org/2000/svg" width="24" height="24" viewBox="0 0 24 24">
  <metadata><?xpacket begin="﻿" id="W5M0MpCehiHzreSzNTczkc9d"?>
<x:xmpmeta xmlns:x="adobe:ns:meta/" x:xmptk="Adobe XMP Core 5.6-c140 79.160451, 2017/05/06-01:08:21        ">
   <rdf:RDF xmlns:rdf="http://www.w3.org/1999/02/22-rdf-syntax-ns#">
      <rdf:Description rdf:about=""/>
   </rdf:RDF>
</x:xmpmeta>
                                                                                                    
                                                                                                    
                                                                                                    
                                                                                                    
                                                                                                    
                                                                                                    
                                                                                                    
                                                                                                    
                                                                                                    
                                                                                                    
                                                                                                    
                                                                                                    
                                                                                                    
                                                                                                    
                                                                                                    
                                                                                                    
                                                                                                    
                                                                                                    
                                                                                                    
                                                                                                    
                           
<?xpacket end="w"?></metadata>
<defs>
    <style>
      .cls-1 {
        fill: #fff;
        fill-rule: evenodd;
      }
    </style>
  </defs>
  <path id="Twitter_Icon" data-name="Twitter Icon" class="cls-1" d="M1131,6080.66a7.161,7.161,0,0,1-2,.56,3.567,3.567,0,0,0,1.53-1.96,6.831,6.831,0,0,1-2.21.86,3.482,3.482,0,0,0-6.04,2.41,3.591,3.591,0,0,0,.09.81,9.838,9.838,0,0,1-7.18-3.69,3.547,3.547,0,0,0,1.08,4.72,3.375,3.375,0,0,1-1.58-.45v0.05a3.516,3.516,0,0,0,2.79,3.46,3.465,3.465,0,0,1-.92.13,2.815,2.815,0,0,1-.65-0.07,3.492,3.492,0,0,0,3.26,2.46,6.949,6.949,0,0,1-4.34,1.51,7.55,7.55,0,0,1-.83-0.05,9.83,9.83,0,0,0,5.35,1.59,9.931,9.931,0,0,0,9.92-10.06c0-.15,0-0.3-0.01-0.45a7.215,7.215,0,0,0,1.74-1.83h0Z" transform="translate(-1110.5 -6074)"/>
</svg>
