<svg xmlns="http://www.w3.org/2000/svg" width="24" height="24" viewBox="0 0 24 24">
  <metadata><?xpacket begin="﻿" id="W5M0MpCehiHzreSzNTczkc9d"?>
<x:xmpmeta xmlns:x="adobe:ns:meta/" x:xmptk="Adobe XMP Core 5.6-c140 79.160451, 2017/05/06-01:08:21        ">
   <rdf:RDF xmlns:rdf="http://www.w3.org/1999/02/22-rdf-syntax-ns#">
      <rdf:Description rdf:about=""/>
   </rdf:RDF>
</x:xmpmeta>
                                                                                                    
                                                                                                    
                                                                                                    
                                                                                                    
                                                                                                    
                                                                                                    
                                                                                                    
                                                                                                    
                                                                                                    
                                                                                                    
                                                                                                    
                                                                                                    
                                                                                                    
                                                                                                    
                                                                                                    
                                                                                                    
                                                                                                    
                                                                                                    
                                                                                                    
                                                                                                    
                           
<?xpacket end="w"?></metadata>
<defs>
    <style>
      .cls-1 {
        fill: #fff;
        fill-rule: evenodd;
      }
    </style>
  </defs>
  <path id="Pinterest_Icon" data-name="Pinterest Icon" class="cls-1" d="M1285.74,6089.24c-0.47,2.35-1.05,4.59-2.76,5.77-0.53-3.54.78-6.2,1.38-9.03-1.03-1.64.12-4.94,2.3-4.13,2.68,1.01-2.32,6.11,1.03,6.74,3.51,0.67,4.93-5.74,2.76-7.82-3.13-3.01-9.13-.07-8.39,4.24,0.18,1.05,1.33,1.37.46,2.82-2.01-.42-2.61-1.91-2.53-3.91,0.13-3.27,3.11-5.55,6.09-5.87,3.79-.4,7.33,1.31,7.82,4.67,0.55,3.8-1.7,7.91-5.75,7.61A4.973,4.973,0,0,1,1285.74,6089.24Z" transform="translate(-1275 -6074.5)"/>
</svg>
