<svg xmlns="http://www.w3.org/2000/svg" width="120" height="40" viewBox="0 0 120 40">
  <metadata><?xpacket begin="﻿" id="W5M0MpCehiHzreSzNTczkc9d"?>
<x:xmpmeta xmlns:x="adobe:ns:meta/" x:xmptk="Adobe XMP Core 5.6-c140 79.160451, 2017/05/06-01:08:21        ">
   <rdf:RDF xmlns:rdf="http://www.w3.org/1999/02/22-rdf-syntax-ns#">
      <rdf:Description rdf:about=""/>
   </rdf:RDF>
</x:xmpmeta>
                                                                                                    
                                                                                                    
                                                                                                    
                                                                                                    
                                                                                                    
                                                                                                    
                                                                                                    
                                                                                                    
                                                                                                    
                                                                                                    
                                                                                                    
                                                                                                    
                                                                                                    
                                                                                                    
                                                                                                    
                                                                                                    
                                                                                                    
                                                                                                    
                                                                                                    
                                                                                                    
                           
<?xpacket end="w"?></metadata>
<defs>
    <style>
      .cls-1 {
        fill: #141414;
        fill-rule: evenodd;
      }
    </style>
  </defs>
  <path id="Hero" class="cls-1" d="M766.188,2756.99a0.771,0.771,0,0,1,.127-0.33v-0.05a0.781,0.781,0,0,1,.407-0.55,2.919,2.919,0,0,1,.407-0.25,0.679,0.679,0,0,0,.3-0.35,0.954,0.954,0,0,1,.127-0.26,1,1,0,0,0,.127-0.2,1.963,1.963,0,0,0,.127-0.42c0.016-.12.042-0.26,0.076-0.43a3.3,3.3,0,0,1,.152-0.58,1,1,0,0,0,0-.63,2.328,2.328,0,0,0,.051-0.45,0.854,0.854,0,0,0-.152-0.45v-1.26a1.522,1.522,0,0,0-.051-0.45,1.838,1.838,0,0,1,.025-0.68,1.846,1.846,0,0,0,.026-0.68,2.645,2.645,0,0,1,.025-0.38,2.639,2.639,0,0,0,.026-0.38,4.229,4.229,0,0,1-.127-0.85c-0.018-.3-0.026-0.59-0.026-0.86,0-.16-0.009-0.34-0.025-0.52s-0.026-.36-0.026-0.53v-1.46a1.5,1.5,0,0,1,.356-0.91,2.2,2.2,0,0,0,.2-0.22,0.331,0.331,0,0,0-.05-0.38,0.565,0.565,0,0,1,.127-0.05,0.652,0.652,0,0,0,.127-0.05c0.135-.03.262-0.06,0.381-0.08a0.563,0.563,0,0,1,.381.13,0.269,0.269,0,0,0,.254-0.05,0.138,0.138,0,0,1,.1-0.1,0.164,0.164,0,0,0,.1-0.05,1.569,1.569,0,0,0,.305-0.03c0.1-.01.2-0.02,0.3-0.02a2.623,2.623,0,0,1,.61-0.1,0.181,0.181,0,0,1,.2.25c0,0.23-.009.46-0.026,0.68s-0.025.44-.025,0.68a2.282,2.282,0,0,0-.051.47v0.48a8.605,8.605,0,0,0-.076,1.01c-0.018.47-.043,0.96-0.077,1.48s-0.059,1.02-.076,1.49-0.025.8-.025,1a5.122,5.122,0,0,0,.2,1.66,3.532,3.532,0,0,0,.432,1.28c0.22,0.39.449,0.77,0.686,1.13q0.253,0.315.407,0a0.456,0.456,0,0,1,.406-0.3,1.235,1.235,0,0,1,.661,0h0.2a0.285,0.285,0,0,0,.2-0.1c0-.1.051-0.1,0.152,0a0.281,0.281,0,0,0,.407-0.15l0.1-.2c0.068-.2.186-0.23,0.356-0.1a0.732,0.732,0,0,0,.3.1c0.169,0.03.118,0.06-.152,0.08s-0.374-.06-0.305-0.23c0.1-.17.2-0.2,0.305-0.1a0.464,0.464,0,0,0,.508,0c0.135-.1.262-0.19,0.381-0.28a2.314,2.314,0,0,0,.33-0.27,0.609,0.609,0,0,0,.2-0.3c0.033-.27.067-0.52,0.1-0.73a1.431,1.431,0,0,0-.1-0.73v-0.16a1.877,1.877,0,0,1,.025-0.3,1.788,1.788,0,0,0,.026-0.3,2.009,2.009,0,0,0,.05-0.55,1.689,1.689,0,0,1,.026-0.3,1.877,1.877,0,0,0,.025-0.3V2745a0.959,0.959,0,0,0,.051-0.28,0.906,0.906,0,0,1,.051-0.28v-0.35a3.179,3.179,0,0,0,.152-0.5,0.889,0.889,0,0,0-.05-0.51v-0.15a1.663,1.663,0,0,0,.05-0.9v-0.15a2.051,2.051,0,0,0,.077-0.71c-0.018-.23-0.026-0.47-0.026-0.7a1.584,1.584,0,0,0,.026-0.48,4.042,4.042,0,0,1-.026-0.48,0.693,0.693,0,0,1-.025-0.33,2.265,2.265,0,0,0,.025-0.32v-1.46a0.535,0.535,0,0,1,.026-0.18,0.572,0.572,0,0,0,.025-0.17,4.524,4.524,0,0,0-.025-0.48,4.042,4.042,0,0,1-.026-0.48v-0.2c-0.034-.23-0.068-0.47-0.1-0.7a5.24,5.24,0,0,1-.051-0.76,9.606,9.606,0,0,1-.051-0.98v-1.08c-0.034-.3-0.06-0.59-0.076-0.88a4.714,4.714,0,0,0-.127-0.83l-0.153-.9c-0.034-.17-0.059-0.32-0.076-0.46a1.35,1.35,0,0,0-.127-0.4,0.218,0.218,0,0,1,.025-0.1,0.219,0.219,0,0,0,.026-0.1,0.276,0.276,0,0,0-.051-0.35,5.685,5.685,0,0,0-.28-0.58,1.2,1.2,0,0,0-.432-0.48,0.651,0.651,0,0,0-.457-0.2,0.4,0.4,0,0,1-.508-0.15H774.6a0.668,0.668,0,0,1-.813.05,0.637,0.637,0,0,0-.356-0.08,1.371,1.371,0,0,1-.254.03,0.541,0.541,0,0,0-.356,0c-0.1.03-.221,0.07-0.356,0.1a0.2,0.2,0,0,0-.2.15,0.241,0.241,0,0,0-.127.12,0.408,0.408,0,0,1-.127.18,0.488,0.488,0,0,0,.2.25,3.148,3.148,0,0,0,.407.36,0.907,0.907,0,0,0,.1.15,0.127,0.127,0,0,1,.051.1,2.125,2.125,0,0,0,.025.32,0.719,0.719,0,0,1-.025.33q-0.1.555-.152,1.08c-0.035.35-.085,0.71-0.153,1.08a6.246,6.246,0,0,0-.051.78,6.246,6.246,0,0,1-.051.78,6.787,6.787,0,0,0-.127.98c-0.017.32-.042,0.65-0.076,0.98a4.735,4.735,0,0,0-.051.66,2.348,2.348,0,0,1-.1.65,2.453,2.453,0,0,0-.051.48v0.68a0.245,0.245,0,0,1-.3.25h-0.966l-0.61.15a0.623,0.623,0,0,1-.254.05,0.378,0.378,0,0,0-.254.1,6.826,6.826,0,0,1-1.931.61,0.318,0.318,0,0,1-.2.05,1.808,1.808,0,0,0-.051-0.51,0.2,0.2,0,0,1,.051-0.15,1.894,1.894,0,0,0-.1-0.85,0.573,0.573,0,0,1-.051-0.26,2.686,2.686,0,0,1,.1-0.6v-0.2c-0.034-.1-0.069-0.21-0.1-0.33s-0.068-.24-0.1-0.37c-0.034-.07-0.068-0.15-0.1-0.23a0.6,0.6,0,0,1-.051-0.23c-0.034-.2-0.06-0.4-0.076-0.6s-0.026-.38-0.026-0.55a0.693,0.693,0,0,1-.025-0.33,0.719,0.719,0,0,0-.025-0.33,1.788,1.788,0,0,0-.026-0.3,1.786,1.786,0,0,1-.025-0.3,8.256,8.256,0,0,1-.051-0.93v-0.98a0.836,0.836,0,0,1,.1-0.25,0.354,0.354,0,0,0,.05-0.41,0.322,0.322,0,0,1-.05-0.3,0.314,0.314,0,0,1,.2-0.2,0.255,0.255,0,0,0,.254-0.1,0.264,0.264,0,0,0-.2-0.3,2.563,2.563,0,0,1-.382-0.23,1.914,1.914,0,0,0-.432-0.22,0.335,0.335,0,0,0-.254-0.1,0.736,0.736,0,0,1-.457-0.25,0.267,0.267,0,0,0-.2-0.16,0.569,0.569,0,0,0-.229-0.05,0.437,0.437,0,0,1-.229-0.05l-0.051-.05a2.636,2.636,0,0,1-.152.35c-0.1-.06-0.2-0.11-0.28-0.15a1.207,1.207,0,0,1-.279-0.15,2.519,2.519,0,0,0-.229.48,0.561,0.561,0,0,0,.076.48,0.408,0.408,0,0,1,.051.45q-0.1.66-.178,1.26t-0.178,1.26q-0.051.39-.1,0.78a7.137,7.137,0,0,1-.153.78c-0.1.43-.2,0.85-0.305,1.25s-0.186.83-.254,1.26q-0.1.6-.178,1.23c-0.051.42-.11,0.85-0.178,1.28a5.793,5.793,0,0,0-.1,1.04c0,0.32-.018.64-0.051,0.98a1.3,1.3,0,0,1-.026.27,1.481,1.481,0,0,0-.025.28c-0.034.44-.068,0.85-0.1,1.26s-0.068.82-.1,1.25c-0.034.47-.06,0.94-0.076,1.39s-0.043.91-.077,1.38v1.99a2.548,2.548,0,0,0,.051.52q0.051,0.36.076,0.66c0.017,0.2.026,0.42,0.026,0.65q0.049,0.4.1,0.78a5.786,5.786,0,0,1,.051.78c0,0.34-.008.67-0.025,0.98s-0.026.65-.026,0.98a1.129,1.129,0,0,1-.025.23,1.129,1.129,0,0,0-.025.23q0.049,0.45.076,0.9a3.451,3.451,0,0,0,.178.91,6.091,6.091,0,0,0,.228.65,5.186,5.186,0,0,1,.229.7,1.2,1.2,0,0,0,.254.41,3.3,3.3,0,0,0,.356.3,1.367,1.367,0,0,0,1.322.2,0.225,0.225,0,0,1,.152.05,0.367,0.367,0,0,0,.407-0.2,0.218,0.218,0,0,1,.025-0.1,0.252,0.252,0,0,0,.025-0.1,0.53,0.53,0,0,0,.127-0.18,0.429,0.429,0,0,1,.127-0.17,0.474,0.474,0,0,0,.178.05,0.338,0.338,0,0,1,.178.05h0A0.771,0.771,0,0,0,766.188,2756.99Zm18.6-30.91a0.1,0.1,0,0,1-.026.15,0.186,0.186,0,0,0-.076.15q0.051,0.1.1,0.03c0.033-.05.051-0.04,0.051,0.03-0.034.16-.06,0.21-0.077,0.12s-0.059-.04-0.127.13a2.916,2.916,0,0,0-.2.6,0.28,0.28,0,0,1-.051.2c-0.068.27-.136,0.55-0.2,0.83s-0.136.56-.2,0.83a0.782,0.782,0,0,1-.1.35,1.209,1.209,0,0,0-.076.56,0.757,0.757,0,0,1-.178.55,0.939,0.939,0,0,1,0,.43,2.321,2.321,0,0,1-.153.38,0.271,0.271,0,0,0-.025.2,0.288,0.288,0,0,1-.025.2,0.616,0.616,0,0,1-.051.22c-0.034.09-.069,0.16-0.1,0.23a0.791,0.791,0,0,1-.051.25,0.315,0.315,0,0,0,0,.25,0.275,0.275,0,0,1-.025.26,0.386,0.386,0,0,0-.076.25,1.421,1.421,0,0,0-.1.25,0.927,0.927,0,0,0-.051.3c-0.034.1-.068,0.2-0.1,0.3a0.442,0.442,0,0,0,0,.3,0.285,0.285,0,0,1-.051.2c-0.069.21-.136,0.4-0.2,0.58s-0.135.38-.2,0.58a1.521,1.521,0,0,0-.025.48,0.769,0.769,0,0,1-.077.43v0.3a1.454,1.454,0,0,0-.1.55,1.419,1.419,0,0,1-.1.55,1.1,1.1,0,0,0-.051.41,0.571,0.571,0,0,1-.05.25,0.392,0.392,0,0,0-.026.25,1.514,1.514,0,0,1,.026.25c0,0.1-.018.15-0.051,0.15a0.636,0.636,0,0,0-.077.38,0.731,0.731,0,0,1-.025.33,0.47,0.47,0,0,0,.051.2,0.163,0.163,0,0,1-.051.2v0.37a2.144,2.144,0,0,1-.051.43,0.8,0.8,0,0,0-.051.48,2.167,2.167,0,0,1,.051.48,0.927,0.927,0,0,0,.051.3,0.222,0.222,0,0,1-.051.25v0.15a0.226,0.226,0,0,1,.051.25,0.3,0.3,0,0,0-.051.2,1.721,1.721,0,0,0,.026.31,2.263,2.263,0,0,1,.025.35v1.13a3.43,3.43,0,0,0,.051.58v0.05a0.622,0.622,0,0,0-.076.38,2.647,2.647,0,0,1,.025.37v1.06a0.185,0.185,0,0,0,0,.3,0.818,0.818,0,0,1,.1.35,0.959,0.959,0,0,0,.051.31,2.205,2.205,0,0,1,.05.42,2.228,2.228,0,0,0,.051.43,2.514,2.514,0,0,1,.2,1.11,4.915,4.915,0,0,0,.153.55,1.074,1.074,0,0,1,.051.55,0.042,0.042,0,0,0,.051.05,0.192,0.192,0,0,1,.076.18,0.232,0.232,0,0,0,.025.18,1.682,1.682,0,0,0,.1.4l0.152,0.6,0.051,0.05q0.1-.045.1,0.15a0.407,0.407,0,0,1,.025.25,0.424,0.424,0,0,0,.026.26,0.758,0.758,0,0,0,.254.4,0.243,0.243,0,0,1,.076.23,0.318,0.318,0,0,0,.025.22,1.1,1.1,0,0,1,.178.23c0.051,0.08.093,0.16,0.127,0.22a1.176,1.176,0,0,0,.356.58,1.23,1.23,0,0,1,.356.58,1.492,1.492,0,0,1,.356.4,0.608,0.608,0,0,0,.457.3,0.228,0.228,0,0,1,.153.05,0.186,0.186,0,0,0,.152.06,0.126,0.126,0,0,1,.1.05,1,1,0,0,0,.152.1,0.46,0.46,0,0,0,.153.05,0.306,0.306,0,0,1,.152.05,4.52,4.52,0,0,0,.61.15,2.076,2.076,0,0,1,.61.2c0.067,0.03.144,0.07,0.229,0.1a0.7,0.7,0,0,0,.228.05,1.87,1.87,0,0,0,.356-0.03,1.15,1.15,0,0,1,.356.03H788.7a0.306,0.306,0,0,1,.229-0.1,1.024,1.024,0,0,0,.28-0.05,0.634,0.634,0,0,0,.406-0.1,0.266,0.266,0,0,1,.178-0.1,0.469,0.469,0,0,0,.178-0.05,1.365,1.365,0,0,0,.61-0.3,4.7,4.7,0,0,0,.381-0.33,0.457,0.457,0,0,1,.432-0.13,3.155,3.155,0,0,1,.3-0.4,0.768,0.768,0,0,1,.254-0.2,1.448,1.448,0,0,0,.3-0.25,0.579,0.579,0,0,1,.356-0.3,0.244,0.244,0,0,0,.152-0.26,0.561,0.561,0,0,1,.2-0.35,1.282,1.282,0,0,1,.355-0.32,1.159,1.159,0,0,0,.356-0.38,0.11,0.11,0,0,1,.127-0.08,0.1,0.1,0,0,0,.127-0.07,2,2,0,0,1,.229-0.36,1.7,1.7,0,0,0,.229-0.35,0.6,0.6,0,0,1,.2-0.25,0.274,0.274,0,0,0,.051-0.25,1.924,1.924,0,0,0-.254.1,0.654,0.654,0,0,0-.2.15,0.088,0.088,0,0,1-.1.1,3.934,3.934,0,0,0-.458.13,2.684,2.684,0,0,1-.457.12,4.757,4.757,0,0,1-.483.08c-0.152.02-.314,0.04-0.483,0.07a16,16,0,0,1-1.931.31,2.648,2.648,0,0,0-.458.12,0.661,0.661,0,0,1-.457-0.02c-0.068,0-.1.01-0.1,0.05a0.138,0.138,0,0,1-.177.05,0.2,0.2,0,0,0-.128-0.05,1.31,1.31,0,0,1-.254-0.2c-0.068-.27-0.119-0.46-0.152-0.56l-0.1-.2a0.156,0.156,0,0,1-.076-0.15,0.179,0.179,0,0,0-.025-0.15,1.888,1.888,0,0,1-.153-0.38,2.323,2.323,0,0,0-.152-0.37,0.326,0.326,0,0,1-.1-0.23,0.544,0.544,0,0,0-.051-0.23,1.1,1.1,0,0,0-.051-0.35c-0.034-.1-0.068-0.22-0.1-0.35a3.32,3.32,0,0,0-.077-0.33,0.547,0.547,0,0,1,.026-0.27,0.434,0.434,0,0,0-.051-0.26,0.37,0.37,0,0,1-.051-0.25,6.578,6.578,0,0,1-.127-0.95c-0.017-.3-0.043-0.62-0.076-0.96a0.178,0.178,0,0,1,0-.25c0.033-.03.017-0.08-0.051-0.15a2.525,2.525,0,0,0-.025-0.33,2.1,2.1,0,0,1-.026-0.32,1.289,1.289,0,0,0-.1-0.56c-0.035-.06-0.069-0.12-0.1-0.17a0.139,0.139,0,0,1,.051-0.18,0.6,0.6,0,0,1-.026-0.3,0.4,0.4,0,0,0-.076-0.3q-0.153-.15,0-0.15a0.14,0.14,0,0,0,.025-0.13,0.214,0.214,0,0,1-.025-0.13,1.489,1.489,0,0,1,.051-0.45,0.657,0.657,0,0,1,.025-0.18,0.18,0.18,0,0,0-.076-0.17,0.215,0.215,0,0,1,0-.28,0.8,0.8,0,0,1,.254-0.27,0.455,0.455,0,0,1,.229-0.13,0.463,0.463,0,0,0,.229-0.13,0.344,0.344,0,0,1,.228-0.1,0.283,0.283,0,0,0,.229-0.15h0.153c0.169,0,.33-0.01.482-0.02a1.589,1.589,0,0,1,.483.02h0.305a0.708,0.708,0,0,0,.407-0.1,0.115,0.115,0,0,1,.127-0.02,0.178,0.178,0,0,0,.178-0.08,1.422,1.422,0,0,0,.406-0.22,1.433,1.433,0,0,1,.407-0.23,0.1,0.1,0,0,0,.076-0.08,0.273,0.273,0,0,1,.076-0.12,0.95,0.95,0,0,1,.356-0.05,1,1,0,0,1,.813-0.56,1.563,1.563,0,0,1,.559-0.5,0.169,0.169,0,0,0,.153-0.07,1.32,1.32,0,0,1,.152-0.18v-0.1a0.969,0.969,0,0,1,.305-0.2c0.068-.07.076-0.13,0.026-0.18a0.106,0.106,0,0,1,.025-0.17,0.238,0.238,0,0,0,.051-0.16,0.428,0.428,0,0,1,.152-0.25,0.367,0.367,0,0,1,.026-0.15,0.338,0.338,0,0,0,.025-0.15l0.051-.05a0.6,0.6,0,0,0,.3-0.15c0.067-.07.135-0.13,0.2-0.2a2.045,2.045,0,0,0,.051-0.5v-0.1a0.484,0.484,0,0,1,.254-0.26,0.433,0.433,0,0,0,.458-0.35,1.853,1.853,0,0,1,.228-0.35,3.515,3.515,0,0,0,.229-0.3c0.033-.07.068-0.13,0.1-0.2a0.626,0.626,0,0,1,.152-0.2,0.811,0.811,0,0,0-.3-0.05,0.2,0.2,0,0,0-.178-0.03,0.481,0.481,0,0,1-.178.03,0.881,0.881,0,0,0-.66-0.05,3.759,3.759,0,0,0-.483.02,4.667,4.667,0,0,0-.483.08h-0.2a0.524,0.524,0,0,0-.458,0,3.332,3.332,0,0,1-.406.15,2.416,2.416,0,0,0-.356.1c-0.1.03-.221,0.06-0.356,0.1l-1.067.15-0.051.05a0.567,0.567,0,0,1-.33.1,0.821,0.821,0,0,0-.381.1,0.582,0.582,0,0,1-.407.1,2,2,0,0,0-.407.13,0.931,0.931,0,0,1-.406.07,0.407,0.407,0,0,1-.3.1,0.343,0.343,0,0,0-.305.15c0,0.04-.034.05-0.1,0.05a0.338,0.338,0,0,1-.178.05,0.474,0.474,0,0,0-.178.05,0.29,0.29,0,0,1-.177.11,0.336,0.336,0,0,0-.178.05,0.263,0.263,0,0,1-.254-0.26,0.63,0.63,0,0,1,0-.5,0.856,0.856,0,0,0,.05-0.5,0.273,0.273,0,0,0,.077-0.25,0.384,0.384,0,0,1,.025-0.25,1.263,1.263,0,0,0-.152-0.56,3.267,3.267,0,0,1,.05-0.7,0.2,0.2,0,0,0-.05-0.15,1.216,1.216,0,0,0-.026-0.23,1.129,1.129,0,0,1-.025-0.23,0.252,0.252,0,0,1,.025-0.1,0.191,0.191,0,0,0,.026-0.1,5.728,5.728,0,0,1-.051-0.75,6.1,6.1,0,0,0-.051-0.75v-0.11a5.576,5.576,0,0,0,0-1.05,0.19,0.19,0,0,1,.025-0.1,0.255,0.255,0,0,0,.026-0.1,0.277,0.277,0,0,1,.051-0.28,0.277,0.277,0,0,0,.05-0.28,0.861,0.861,0,0,1,.051-0.65v-0.2a0.82,0.82,0,0,1,.2-0.61c0.067-.16.152-0.2,0.254-0.09a0.3,0.3,0,0,0,.355-0.06,0.325,0.325,0,0,1,.2-0.1,0.771,0.771,0,0,1,.3-0.05,2.4,2.4,0,0,0,.355-0.1c0.1-.03.22-0.07,0.356-0.1a3.269,3.269,0,0,0,.534-0.27,1.062,1.062,0,0,1,.584-0.18q0.051,0,.051-0.03c0-.01.017-0.02,0.051-0.02a2.474,2.474,0,0,0,.966-0.81c0.067-.06.135-0.13,0.2-0.2a2.513,2.513,0,0,1,.254-0.2q0.1,0,.1-0.15a0.968,0.968,0,0,1,.457-0.5,0.231,0.231,0,0,0,.153-0.25,0.971,0.971,0,0,1,.05-0.4,0.528,0.528,0,0,1,.178-0.13,1.119,1.119,0,0,0,.178-0.08v-0.1c-0.068-.2-0.051-0.31.051-0.35a0.546,0.546,0,0,0,.229-0.13,0.581,0.581,0,0,1,.178-0.12,0.6,0.6,0,0,0,.3-0.6,0.108,0.108,0,0,1,.025-0.08,0.108,0.108,0,0,0,.025-0.08,1.934,1.934,0,0,0-.711-0.25,3.437,3.437,0,0,0-.712-0.1,4.315,4.315,0,0,0-.508.03,4.4,4.4,0,0,0-.508.07c-0.17.04-.339,0.07-0.508,0.1s-0.34.07-.509,0.1l-0.051.05c-0.1.04-.2,0.07-0.279,0.11s-0.178.06-.28,0.1a0.382,0.382,0,0,0-.2.05,1.815,1.815,0,0,0-.2.1,3.723,3.723,0,0,0-.483.22,3.765,3.765,0,0,1-.483.23,0.3,0.3,0,0,1-.356-0.03,0.311,0.311,0,0,0-.355-0.02,0.512,0.512,0,0,0-.28.38q-0.025.225-.279-0.03c0-.03-0.043-0.02-0.128.03s-0.144.06-.177,0.02c-0.069-.07-0.145-0.04-0.229.08a0.228,0.228,0,0,1-.28.12c-0.068-.06-0.093-0.08-0.076-0.05s-0.009.05-.076,0.05a0.625,0.625,0,0,1-.3-0.05,0.366,0.366,0,0,0-.254,0,0.738,0.738,0,0,1-.762,0h0a0.261,0.261,0,0,0-.1.25h0Zm14.921,26.76a1.2,1.2,0,0,0,.3.2,1.369,1.369,0,0,1,.712.86c0.1,0.27.2,0.53,0.305,0.8s0.2,0.54.3,0.81a0.44,0.44,0,0,0,.457.35h0.559a1.068,1.068,0,0,0,.864-0.56l0.153-.3a0.621,0.621,0,0,0,.1-0.6,2.045,2.045,0,0,1-.051-0.5,1.44,1.44,0,0,1-.025-0.46,1.421,1.421,0,0,0-.025-0.45,4.854,4.854,0,0,1-.077-0.53c-0.017-.18-0.025-0.36-0.025-0.53-0.034-.16-0.06-0.31-0.076-0.42a1.26,1.26,0,0,1,.025-0.43,0.191,0.191,0,0,0-.051-0.15,2.722,2.722,0,0,1-.076-0.83c0.017-.29.026-0.56,0.026-0.83a3.517,3.517,0,0,1,.025-0.45,0.939,0.939,0,0,0-.076-0.46,0.755,0.755,0,0,1,0-.55,2.851,2.851,0,0,0,0-.75v-0.25c0-.24.008-0.47,0.025-0.68s0.026-.47.026-0.73a2.373,2.373,0,0,0-.026-0.33,2.362,2.362,0,0,1-.025-0.33,4.917,4.917,0,0,0,.076-0.52c0.017-.19.025-0.37,0.025-0.53a0.414,0.414,0,0,0,.051-0.15,0.323,0.323,0,0,1,.051-0.15c0.1-.21.22-0.24,0.356-0.11a1.257,1.257,0,0,1,.2.26q0.3,0.4.585,0.75a5.194,5.194,0,0,0,.686.71l0.051,0.05c0.135,0.26.262,0.51,0.381,0.72s0.245,0.45.381,0.68l0.762,1.36c0.1,0.17.212,0.35,0.331,0.55a3.305,3.305,0,0,1,.279.61c0.169,0.4.339,0.8,0.508,1.18a8.041,8.041,0,0,0,.61,1.13,7.846,7.846,0,0,1,.534,1.06,5.151,5.151,0,0,0,.584,1.05q0.255,0.405.483,0.81c0.153,0.27.313,0.54,0.483,0.8a4.527,4.527,0,0,0,.254.53,5.224,5.224,0,0,1,.254.53,3.164,3.164,0,0,0,.814,1.01l0.457,0.27c0.135,0.09.287,0.18,0.457,0.28a1.4,1.4,0,0,0,.712.22,1.131,1.131,0,0,0,.711-0.17,0.5,0.5,0,0,1,.509.05,0.2,0.2,0,0,0,.355.05l0.2-.1a0.452,0.452,0,0,0,.254-0.6,3.442,3.442,0,0,0-.508-1.11,0.64,0.64,0,0,1-.153-0.23,0.626,0.626,0,0,0-.152-0.22,2.731,2.731,0,0,1-.178-0.31,2.949,2.949,0,0,0-.178-0.3c-0.068-.1-0.136-0.21-0.2-0.32s-0.136-.23-0.2-0.33c-0.034-.03-0.043-0.06-0.025-0.08s0.008-.04-0.026-0.07a2.225,2.225,0,0,1-.152-0.38,1.155,1.155,0,0,0-.152-0.33c-0.1-.16-0.2-0.32-0.3-0.47s-0.2-.31-0.3-0.48a3.289,3.289,0,0,0-.305-0.43,3.11,3.11,0,0,1-.3-0.43c-0.136-.16-0.263-0.32-0.381-0.47a3.12,3.12,0,0,1-.331-0.53,6.987,6.987,0,0,0-.61-1.36,3.752,3.752,0,0,0-.228-0.4,4.68,4.68,0,0,1-.229-0.41c-0.068-.13-0.136-0.26-0.2-0.37a1.4,1.4,0,0,1-.153-0.43,5.881,5.881,0,0,0-.915-1.71c-0.135-.17-0.279-0.33-0.432-0.5s-0.313-.34-0.482-0.51l-0.763-.75a4.034,4.034,0,0,1-.762-0.91,0.4,0.4,0,0,1-.127-0.22,0.49,0.49,0,0,0-.127-0.23,0.551,0.551,0,0,1,.1-0.85,1.118,1.118,0,0,0,.254-0.25,1.176,1.176,0,0,1,.61-0.46,1.233,1.233,0,0,0,.763-0.65,0.42,0.42,0,0,1,.254-0.3q0.2-.105.381-0.18t0.381-.18a0.515,0.515,0,0,1,.458.1c0.1,0.14.22,0.14,0.355,0l0.3-.3a0.62,0.62,0,0,1,.1-0.07,0.306,0.306,0,0,0,.1-0.13c0.1-.13.194-0.25,0.279-0.35s0.178-.22.28-0.35a0.19,0.19,0,0,1,.025-0.1,0.252,0.252,0,0,0,.025-0.1,0.164,0.164,0,0,0,.051-0.1,0.127,0.127,0,0,1,.051-0.1,5.679,5.679,0,0,0,.661-0.81,1.79,1.79,0,0,0,.381-0.53,5.822,5.822,0,0,1,.28-0.53,3.384,3.384,0,0,1,.228-0.45c0.084-.13.178-0.26,0.28-0.4,0-.03.008-0.05,0.025-0.05s0.026-.02.026-0.05a3.012,3.012,0,0,1,.254-0.63,1.79,1.79,0,0,0,.2-0.63c0.033-.13.068-0.25,0.1-0.35s0.067-.22.1-0.35c0.034-.1.068-0.2,0.1-0.28a0.379,0.379,0,0,0,0-.27,0.644,0.644,0,0,1,0-.36,2.4,2.4,0,0,1,.152-0.35,0.12,0.12,0,0,1,.026-0.08,0.084,0.084,0,0,0,.025-0.07,1.064,1.064,0,0,1,.1-0.65,0.887,0.887,0,0,0,.051-0.66c-0.034-.03-0.018-0.08.051-0.15a1.786,1.786,0,0,1,.025-0.3,0.574,0.574,0,0,0-.076-0.35,1.825,1.825,0,0,1-.127-0.56c-0.018-.2-0.043-0.4-0.077-0.6-0.034-.17-0.068-0.33-0.1-0.48a1.235,1.235,0,0,0-.254-0.48,4.077,4.077,0,0,0-.331-0.45,2.783,2.783,0,0,1-.33-0.45,5.748,5.748,0,0,0-.635-0.71c-0.221-.19-0.466-0.4-0.737-0.6-0.1-.06-0.212-0.14-0.331-0.22s-0.228-.16-0.33-0.23a2.5,2.5,0,0,1-.381-0.23,2.553,2.553,0,0,0-.381-0.22,8.915,8.915,0,0,0-1.627-.61,6.987,6.987,0,0,0-1.753-.27,3.911,3.911,0,0,0-1.754.37c-0.373.17-.745,0.36-1.118,0.56a7,7,0,0,0-1.067.7q-0.408.3-.762,0.6a3.211,3.211,0,0,0-.61.71,2.763,2.763,0,0,0-.305.85,0.757,0.757,0,0,1-.153.46l-0.152.15a6.4,6.4,0,0,1-.356.78,3.324,3.324,0,0,0-.305.78,0.224,0.224,0,0,1-.051.15c-0.034.17-.068,0.32-0.1,0.48a1.766,1.766,0,0,1-.153.42c-0.034,0-.051.04-0.051,0.1v0.66a3.278,3.278,0,0,1-.025.4,0.669,0.669,0,0,0,.076.4,0.408,0.408,0,0,1-.051.2v0.2a4.755,4.755,0,0,1-.152,1.16,2.093,2.093,0,0,0-.051.76,0.123,0.123,0,0,1,0,.2,0.822,0.822,0,0,0-.1.37,1.519,1.519,0,0,1-.051.38,2.362,2.362,0,0,1-.025.33,0.436,0.436,0,0,0,.025.27,4.162,4.162,0,0,1,.051.76v0.2h0.356a0.046,0.046,0,0,1,.051.05,0.046,0.046,0,0,0,.051.05,0.266,0.266,0,0,1-.153.1h-0.2a0.7,0.7,0,0,0-.051.3,3.846,3.846,0,0,0-.051.71q0.051,0.15.1,0.27a0.294,0.294,0,0,1-.051.28,0.82,0.82,0,0,1-.025.6,0.615,0.615,0,0,0,.076.61,1.45,1.45,0,0,0,.051.42,0.514,0.514,0,0,1-.051.38,0.528,0.528,0,0,0,.051.25,2,2,0,0,0,.025.31,2.051,2.051,0,0,1,.026.35,1.55,1.55,0,0,1,.05.37,1.02,1.02,0,0,0,.051.33,0.623,0.623,0,0,1,.254.05c0.1,0,.153.09,0.153,0.25a0.47,0.47,0,0,0-.051.2,0.9,0.9,0,0,1-.051.26,0.5,0.5,0,0,0-.254.05v0.45a2.328,2.328,0,0,1-.051.45,1.44,1.44,0,0,0,0,.76c0.034,0.23.068,0.46,0.1,0.67a1.569,1.569,0,0,1-.051.68,0.724,0.724,0,0,0,.051.31,0.558,0.558,0,0,1,.051.4,1.033,1.033,0,0,0-.051.4v0.4a1.663,1.663,0,0,1,.1.41v0.25a0.609,0.609,0,0,0,0,.5c0.067,0.2.127,0.41,0.177,0.63a2.959,2.959,0,0,1,.077.68,1.894,1.894,0,0,1-.051.45,0.1,0.1,0,0,0,.076-0.03,0.191,0.191,0,0,1,.127.03,0.134,0.134,0,0,1,.153.15c0,0.07-.069.1-0.2,0.1-0.17.03-.22,0.15-0.152,0.35a0.62,0.62,0,0,1,.254-0.05,0.3,0.3,0,0,1,.153.26,0.21,0.21,0,0,1-.153.2,0.479,0.479,0,0,0-.229.15,0.406,0.406,0,0,0,.077.25,0.206,0.206,0,0,0,.025.1,0.218,0.218,0,0,1,.025.1,0.159,0.159,0,0,0-.05.13,0.172,0.172,0,0,1-.051.12h-0.1c-0.068,0-.1-0.02-0.1-0.05a1.04,1.04,0,0,0-.559-0.05h0v0.05Zm11.36-23.08a5.825,5.825,0,0,1-.229.9,4.231,4.231,0,0,1-.356.65c-0.136.21-.271,0.42-0.406,0.66-0.17.3-.34,0.59-0.509,0.88s-0.339.56-.508,0.83a8.018,8.018,0,0,1-.534.83,7.1,7.1,0,0,1-.686.78,8.817,8.817,0,0,1-.838.63c-0.289.18-.568,0.36-0.839,0.52a5.169,5.169,0,0,0-.457.31l-0.407.3-0.915.6a0.042,0.042,0,0,1-.051.05,0.342,0.342,0,0,1-.457.05,0.292,0.292,0,0,1-.1-0.22v-0.23a3.523,3.523,0,0,0,.077-0.4,2.83,2.83,0,0,1,.076-0.4v-0.21a1.368,1.368,0,0,1-.026-0.45c0.017-.13.042-0.28,0.077-0.45a2.4,2.4,0,0,0,.05-0.45,2.341,2.341,0,0,1,.051-0.46,2.709,2.709,0,0,0,.051-0.55,1.4,1.4,0,0,1,.1-0.55,1.47,1.47,0,0,0,.025-0.46,3.517,3.517,0,0,1-.025-0.45,1.905,1.905,0,0,0,.076-0.33,1.916,1.916,0,0,1,.076-0.32,3.652,3.652,0,0,0,.153-1.06,4.354,4.354,0,0,1,.051-0.68,5.857,5.857,0,0,1,.152-0.68,2.1,2.1,0,0,1,.254-0.52,5.572,5.572,0,0,1,.356-0.48,2.28,2.28,0,0,1,.584-0.58q0.33-.225.636-0.48a4.834,4.834,0,0,1,2.134-.85,1.725,1.725,0,0,1,.813.1c0.17,0.06.322,0.12,0.458,0.17a3,3,0,0,1,.457.23,1.4,1.4,0,0,1,.28.25c0.084,0.1.16,0.2,0.229,0.3a2.576,2.576,0,0,1,.3,1.26C811.18,2729.14,811.121,2729.45,811.071,2729.76Zm-10.724,8.32a0.26,0.26,0,0,1,.127.12,0.192,0.192,0,0,1,.051.21,0.134,0.134,0,0,1-.153.15,0.323,0.323,0,0,1-.2-0.1,1.278,1.278,0,0,1,0-.51A0.519,0.519,0,0,0,800.347,2738.08Zm0.127,8.12a0.225,0.225,0,0,1,.254-0.25,0.18,0.18,0,0,1,.2.2,0.176,0.176,0,0,1-.2.2c-0.17,0-.254-0.05-0.254-0.15h0Zm0.254-11.52a0.266,0.266,0,0,1-.153.1c-0.135,0-.152-0.04-0.05-0.15a0.418,0.418,0,0,0,.05-0.2c0-.06.068-0.08,0.2-0.05a0.7,0.7,0,0,0-.051.3h0Zm21.788,22.13c0.135,0.07.262,0.14,0.381,0.2s0.245,0.14.381,0.21a5.65,5.65,0,0,0,2.389.65c0.237,0,.465-0.01.686-0.03a4.013,4.013,0,0,1,.686.03,3.038,3.038,0,0,0,.763.1h0.711a1.714,1.714,0,0,0,.559-0.1,2.854,2.854,0,0,0,.585-0.15,1.638,1.638,0,0,1,.584-0.1,1.927,1.927,0,0,0,.813-0.3,0.462,0.462,0,0,1,.2-0.13,0.55,0.55,0,0,0,.2-0.12q0.254-.105.483-0.18a1.062,1.062,0,0,0,.432-0.28,4.446,4.446,0,0,1,.406-0.45,2.464,2.464,0,0,1,.458-0.35c0-.04.008-0.05,0.025-0.05s0.026-.02.026-0.05a6.517,6.517,0,0,1,.787-1.01q0.432-.45.89-0.9a0.586,0.586,0,0,0,.2-0.31,1.28,1.28,0,0,1,.407-0.75,0.046,0.046,0,0,1,.051-0.05,0.466,0.466,0,0,1,.1-0.15,0.5,0.5,0,0,0,.1-0.15,1.423,1.423,0,0,0,.279-0.25,1.428,1.428,0,0,1,.28-0.26,0.388,0.388,0,0,0,.152-0.5,1.262,1.262,0,0,1,.051-0.4,3.518,3.518,0,0,0,.076-0.4c0.017-.14.042-0.29,0.077-0.45a0.533,0.533,0,0,0-.051-0.51,0.554,0.554,0,0,1,.051-0.6,1.121,1.121,0,0,0,.2-0.96,0.91,0.91,0,0,1-.076-0.2,0.293,0.293,0,0,0-.077-0.15,0.5,0.5,0,0,1-.279-0.35,1.041,1.041,0,0,1,.025-0.4,1.27,1.27,0,0,1,.026-0.28,1.2,1.2,0,0,0,.025-0.23,2.353,2.353,0,0,0,.051-0.47v-0.48a1.6,1.6,0,0,0,.1-0.45,3.372,3.372,0,0,0,.2-0.61,0.329,0.329,0,0,0,0-.35,0.339,0.339,0,0,1-.051-0.4,0.528,0.528,0,0,0-.1-0.41,0.372,0.372,0,0,1-.05-0.25,2.568,2.568,0,0,1,.05-0.5,2.571,2.571,0,0,0,.051-0.5,1.332,1.332,0,0,0,.051-0.41c0-.33-0.009-0.66-0.025-0.98s-0.043-.64-0.077-0.98a0.385,0.385,0,0,0-.025-0.15,0.176,0.176,0,0,1,.025-0.15,0.933,0.933,0,0,0,.051-0.53c-0.034-.18-0.068-0.36-0.1-0.52-0.035-.37-0.077-0.72-0.127-1.04a3.027,3.027,0,0,1,.025-1.03v-0.15a1.093,1.093,0,0,1-.2-0.95,0.2,0.2,0,0,0-.051-0.15,0.322,0.322,0,0,0-.026-0.15,0.2,0.2,0,0,1,.026-0.16,1.085,1.085,0,0,0-.076-0.62,1.4,1.4,0,0,1-.127-0.58,0.245,0.245,0,0,0-.1-0.15,0.743,0.743,0,0,1-.051-0.61,1.512,1.512,0,0,0-.1-0.65,3.74,3.74,0,0,1-.355-1.76v-0.15a1.848,1.848,0,0,1-.127-0.53c-0.018-.18-0.043-0.36-0.077-0.53a0.353,0.353,0,0,0-.025-0.15,0.206,0.206,0,0,1-.025-0.1l-0.3-.6c-0.069-.17-0.136-0.32-0.2-0.46a0.906,0.906,0,0,0-.356-0.35,1.779,1.779,0,0,1-.2-0.3,0.718,0.718,0,0,0-.356-0.45c-0.135-.07-0.254-0.13-0.355-0.18s-0.2-.11-0.3-0.17a1.961,1.961,0,0,0-.458-0.21c-0.237-.13-0.457-0.25-0.66-0.35a2.144,2.144,0,0,0-.712-0.2,0.529,0.529,0,0,1-.152-0.02,0.311,0.311,0,0,0-.153-0.03,4.216,4.216,0,0,0-1.194-.23c-0.424-.01-0.839-0.02-1.245-0.02h-0.1a1.3,1.3,0,0,1-1.067-.15,1.949,1.949,0,0,0-1.576-.35,0.7,0.7,0,0,0-.2.02,0.725,0.725,0,0,1-.2.03,0.679,0.679,0,0,0-.711.35,0.047,0.047,0,0,1-.051.05,2.308,2.308,0,0,0-.711.7q-0.2.255-.356,0.45c-0.1.14-.221,0.29-0.356,0.46-0.17.23-.348,0.46-0.534,0.68a7.809,7.809,0,0,0-.533.68c-0.069.1-.136,0.21-0.2,0.32a0.325,0.325,0,0,0,.051.38,4.332,4.332,0,0,1-.457.5,0.322,0.322,0,0,1-.076.33,1.645,1.645,0,0,0-.229.28,0.152,0.152,0,0,0-.051.12,0.428,0.428,0,0,1-.051.18,0.191,0.191,0,0,1-.051.15,2.023,2.023,0,0,0-.457.68,6.465,6.465,0,0,1-.356.73,0.28,0.28,0,0,0-.051.2,0.654,0.654,0,0,1-.152.5,0.6,0.6,0,0,0-.2.3,1.9,1.9,0,0,0-.153.41,4.053,4.053,0,0,1-.152.45,0.32,0.32,0,0,0-.026.22,0.353,0.353,0,0,1-.025.23,1.209,1.209,0,0,0-.178.48,1.948,1.948,0,0,1-.127.48l-0.153.45a1.835,1.835,0,0,0-.127.53c-0.017.18-.043,0.36-0.076,0.53-0.034.1-.068,0.21-0.1,0.32a1.215,1.215,0,0,0-.05.33,0.939,0.939,0,0,1,0,.43c-0.035.11-.069,0.24-0.1,0.37a5.627,5.627,0,0,0-.153.68q-0.051.33-.1,0.63a0.139,0.139,0,0,0-.026.13,0.1,0.1,0,0,1,.026.07,0.47,0.47,0,0,0-.051.2,0.408,0.408,0,0,1-.051.2,4.18,4.18,0,0,0-.1.71,0.425,0.425,0,0,0-.051.2,1.527,1.527,0,0,0-.1.45,8.331,8.331,0,0,0-.127,1.13,8.458,8.458,0,0,1-.127,1.14v0.43a2.226,2.226,0,0,0,.051.42,1.292,1.292,0,0,1-.051.4c-0.034.11-.068,0.2-0.1,0.31a0.925,0.925,0,0,0-.05.3v0.55a2.713,2.713,0,0,0,.05.55v0.15c-0.034.21-.059,0.4-0.076,0.58a0.851,0.851,0,0,0,.127.53,0.185,0.185,0,0,1,.026.15,0.367,0.367,0,0,0-.026.15c0.068,0.14.127,0.26,0.178,0.38a0.559,0.559,0,0,0,.33.28,0.128,0.128,0,0,1,.1.07,1.175,1.175,0,0,0,.1.13,0.431,0.431,0,0,1-.051.45,0.143,0.143,0,0,0-.051.1,0.316,0.316,0,0,1,.2.2,0.455,0.455,0,0,0-.127.25,0.452,0.452,0,0,1-.127.26c-0.068.13-.051,0.21,0.051,0.25a0.534,0.534,0,0,1,.152.75q0.153,0.255.3,0.48a2.563,2.563,0,0,1,.255.48c0.1,0.16.185,0.32,0.254,0.45a2.82,2.82,0,0,0,.3.45,1.991,1.991,0,0,1,.305-0.1,0.485,0.485,0,0,1,.2.15c0.1,0.1.194,0.2,0.279,0.3s0.178,0.2.28,0.31a0.406,0.406,0,0,1,.152.4,0.218,0.218,0,0,1-.305-0.03,0.526,0.526,0,0,0-.254-0.17,0.584,0.584,0,0,0-.05.53,0.455,0.455,0,0,0,.355.32l0.2-.2,0.355,0.35c0.1,0.1.2,0.2,0.28,0.3a1.193,1.193,0,0,0,.279.26,3.754,3.754,0,0,1,.636.55,5.268,5.268,0,0,0,.584.55,0.224,0.224,0,0,1,.051.15,0.281,0.281,0,0,1-.356-0.05,0.34,0.34,0,0,1-.152-0.12c-0.034-.05-0.1-0.04-0.2.02a0.479,0.479,0,0,0,.2.15h0Zm8.132-23.23a1.351,1.351,0,0,0,.1.6,6.283,6.283,0,0,0,.229.66,6.565,6.565,0,0,1,.229.65l0.051,0.1c0.033,0.17.058,0.32,0.076,0.45a3.8,3.8,0,0,1,.025.46,2.282,2.282,0,0,1,.051.47v0.48c0.033,0.27.059,0.55,0.076,0.83s0.042,0.58.077,0.88v1.31c-0.035.84-.035,1.68,0,2.51,0,0.24.007,0.47,0.025,0.71a2.391,2.391,0,0,1-.076.75,6.518,6.518,0,0,0-.127.98,8.208,8.208,0,0,1-.127,1.03v0.63a3.864,3.864,0,0,1-.051.63,2.494,2.494,0,0,1-.051.5l-0.1.51a4.354,4.354,0,0,1-.1.7c-0.069.3-.136,0.6-0.2,0.88s-0.135.58-.2,0.88a0.592,0.592,0,0,1-.025.18,0.514,0.514,0,0,0-.026.17,1.881,1.881,0,0,1-.661,1.16c-0.135.13-.262,0.27-0.381,0.4a2.8,2.8,0,0,1-.432.4,1.9,1.9,0,0,1-.61.41,0.763,0.763,0,0,1-.914-0.26,3.566,3.566,0,0,1-.814-1.03c-0.2-.38-0.39-0.76-0.559-1.13a8.531,8.531,0,0,1-.711-1.86q-0.1-.4-0.229-0.78a1.342,1.342,0,0,1-.025-0.78,0.319,0.319,0,0,0-.1-0.3,0.362,0.362,0,0,1-.076-0.28,0.519,0.519,0,0,0-.026-0.27,1.661,1.661,0,0,1,0-.58,1.661,1.661,0,0,0,0-.58,4.49,4.49,0,0,1-.127-0.8c-0.017-.27-0.043-0.54-0.076-0.81a0.557,0.557,0,0,0-.051-0.25,3.636,3.636,0,0,1-.152-0.65,3.633,3.633,0,0,0-.153-0.66,1.489,1.489,0,0,1-.051-0.45c-0.034-.17-0.059-0.34-0.076-0.5a1.869,1.869,0,0,0-.127-0.51,1.033,1.033,0,0,1-.025-0.6,2.419,2.419,0,0,0,.076-0.6l0.152-1.21,0.1-.6c0.033-.21.068-0.41,0.1-0.61a3.45,3.45,0,0,0,.127-0.68,3.438,3.438,0,0,1,.127-0.68,4.339,4.339,0,0,0,.152-0.57c0.034-.19.068-0.36,0.1-0.53a4.6,4.6,0,0,0,.2-0.76q0.1-.39.178-0.78a4.679,4.679,0,0,1,.229-0.77,0.108,0.108,0,0,1,.025-0.08,0.108,0.108,0,0,0,.026-0.08c0.033-.16.058-0.33,0.076-0.5a4.659,4.659,0,0,1,.076-0.5c0.068-.34.118-0.57,0.153-0.71a0.812,0.812,0,0,1,.1-0.42c0.068-.12.135-0.25,0.2-0.38a1.51,1.51,0,0,0,.2-0.75,2.159,2.159,0,0,1,.2-0.71,3.2,3.2,0,0,1,.356-0.55q0.153-.21.457,0a3.113,3.113,0,0,1,.28.32,2.409,2.409,0,0,0,.279.33c0.135,0.17.255,0.32,0.356,0.45a1.468,1.468,0,0,0,.407.36,4.922,4.922,0,0,1,.457.5c0.135,0.17.271,0.35,0.407,0.55,0.067,0.1.144,0.21,0.229,0.33s0.16,0.23.228,0.33a2.907,2.907,0,0,1,.356,1.3,0.9,0.9,0,0,0,.051.36h0a1.033,1.033,0,0,0,.051.4h0Z" transform="translate(-739.515 -2721)"/>
</svg>
