<svg id="Instagram" xmlns="http://www.w3.org/2000/svg" width="54" height="54" viewBox="0 0 54 54">
  <metadata><?xpacket begin="﻿" id="W5M0MpCehiHzreSzNTczkc9d"?>
<x:xmpmeta xmlns:x="adobe:ns:meta/" x:xmptk="Adobe XMP Core 5.6-c140 79.160451, 2017/05/06-01:08:21        ">
   <rdf:RDF xmlns:rdf="http://www.w3.org/1999/02/22-rdf-syntax-ns#">
      <rdf:Description rdf:about=""/>
   </rdf:RDF>
</x:xmpmeta>
                                                                                                    
                                                                                                    
                                                                                                    
                                                                                                    
                                                                                                    
                                                                                                    
                                                                                                    
                                                                                                    
                                                                                                    
                                                                                                    
                                                                                                    
                                                                                                    
                                                                                                    
                                                                                                    
                                                                                                    
                                                                                                    
                                                                                                    
                                                                                                    
                                                                                                    
                                                                                                    
                           
<?xpacket end="w"?></metadata>
<defs>
    <style>
      .cls-1 {
        fill: none;
        stroke: #fff;
        stroke-width: 1px;
        opacity: 0.2;
      }

      .cls-2 {
        fill: #fff;
        fill-rule: evenodd;
      }
    </style>
  </defs>
  <circle id="Circle" class="cls-1" cx="27" cy="27" r="27"/>
  <path id="Instagram_Icon" data-name="Instagram Icon" class="cls-2" d="M641.539,4585H625.461a2.46,2.46,0,0,1-2.461-2.46v-16.08a2.46,2.46,0,0,1,2.461-2.46h16.078a2.46,2.46,0,0,1,2.461,2.46v16.08A2.46,2.46,0,0,1,641.539,4585Zm-14.714-12.4h-1.912v10.26a0.223,0.223,0,0,0,.218.23h16.738a0.223,0.223,0,0,0,.218-0.23V4572.6h-1.912a7.247,7.247,0,0,1,.212,1.74,6.888,6.888,0,1,1-13.774,0A7.247,7.247,0,0,1,626.825,4572.6Zm6.675-2.16a4.06,4.06,0,1,0,4.061,4.06A4.062,4.062,0,0,0,633.5,4570.44Zm8.582-3.59a0.947,0.947,0,0,0-.951-0.95h-2.854a0.947,0.947,0,0,0-.952.95v2.88a0.947,0.947,0,0,0,.952.95h2.854a0.947,0.947,0,0,0,.951-0.95v-2.88Z" transform="translate(-606 -4547)"/>
</svg>
