<svg xmlns="http://www.w3.org/2000/svg" width="36" height="36" viewBox="0 0 36 36">
  <metadata><?xpacket begin="﻿" id="W5M0MpCehiHzreSzNTczkc9d"?>
<x:xmpmeta xmlns:x="adobe:ns:meta/" x:xmptk="Adobe XMP Core 5.6-c140 79.160451, 2017/05/06-01:08:21        ">
   <rdf:RDF xmlns:rdf="http://www.w3.org/1999/02/22-rdf-syntax-ns#">
      <rdf:Description rdf:about=""/>
   </rdf:RDF>
</x:xmpmeta>
                                                                                                    
                                                                                                    
                                                                                                    
                                                                                                    
                                                                                                    
                                                                                                    
                                                                                                    
                                                                                                    
                                                                                                    
                                                                                                    
                                                                                                    
                                                                                                    
                                                                                                    
                                                                                                    
                                                                                                    
                                                                                                    
                                                                                                    
                                                                                                    
                                                                                                    
                                                                                                    
                           
<?xpacket end="w"?></metadata>
<defs>
    <style>
      .cls-1 {
        fill: #141414;
        fill-rule: evenodd;
        opacity: 0.7;
      }
    </style>
  </defs>
  <path id="Mail_Icon" data-name="Mail Icon" class="cls-1" d="M937,5677H919a2.962,2.962,0,0,1-3-2.92v-13.16a2.962,2.962,0,0,1,3-2.92h18a2.962,2.962,0,0,1,3,2.92v13.16A2.962,2.962,0,0,1,937,5677Zm-17.25-17.54,8.25,6.99,8.25-6.99h-16.5Zm18.75,1.46a1.435,1.435,0,0,0-.477-1.06L928,5668.23l-10.023-8.37a1.435,1.435,0,0,0-.477,1.06v13.16a1.485,1.485,0,0,0,1.5,1.46h18a1.485,1.485,0,0,0,1.5-1.46v-13.16Z" transform="translate(-910 -5649.5)"/>
</svg>
