<svg xmlns="http://www.w3.org/2000/svg" width="36" height="36" viewBox="0 0 36 36">
  <metadata><?xpacket begin="﻿" id="W5M0MpCehiHzreSzNTczkc9d"?>
<x:xmpmeta xmlns:x="adobe:ns:meta/" x:xmptk="Adobe XMP Core 5.6-c140 79.160451, 2017/05/06-01:08:21        ">
   <rdf:RDF xmlns:rdf="http://www.w3.org/1999/02/22-rdf-syntax-ns#">
      <rdf:Description rdf:about=""/>
   </rdf:RDF>
</x:xmpmeta>
                                                                                                    
                                                                                                    
                                                                                                    
                                                                                                    
                                                                                                    
                                                                                                    
                                                                                                    
                                                                                                    
                                                                                                    
                                                                                                    
                                                                                                    
                                                                                                    
                                                                                                    
                                                                                                    
                                                                                                    
                                                                                                    
                                                                                                    
                                                                                                    
                                                                                                    
                                                                                                    
                           
<?xpacket end="w"?></metadata>
<defs>
    <style>
      .cls-1 {
        fill: #141414;
        fill-rule: evenodd;
        opacity: 0.7;
      }
    </style>
  </defs>
  <path id="Map_Icon" data-name="Map Icon" class="cls-1" d="M926.5,5554c-1.579.01-9.5-11.71-9.5-15.63a9.5,9.5,0,0,1,19,0C936,5542.24,928.055,5554.01,926.5,5554Zm0-23.44a7.866,7.866,0,0,0-7.917,7.81c0,3.27,6.6,13.29,7.917,13.29,1.3,0,7.917-10.06,7.917-13.29A7.866,7.866,0,0,0,926.5,5530.56Zm0,11.72a3.905,3.905,0,1,1,3.958-3.91A3.934,3.934,0,0,1,926.5,5542.28Zm0-6.25a2.345,2.345,0,1,0,2.375,2.34A2.359,2.359,0,0,0,926.5,5536.03Z" transform="translate(-908.5 -5523.5)"/>
</svg>
