<svg xmlns="http://www.w3.org/2000/svg" width="36" height="36" viewBox="0 0 36 36">
  <metadata><?xpacket begin="﻿" id="W5M0MpCehiHzreSzNTczkc9d"?>
<x:xmpmeta xmlns:x="adobe:ns:meta/" x:xmptk="Adobe XMP Core 5.6-c140 79.160451, 2017/05/06-01:08:21        ">
   <rdf:RDF xmlns:rdf="http://www.w3.org/1999/02/22-rdf-syntax-ns#">
      <rdf:Description rdf:about=""/>
   </rdf:RDF>
</x:xmpmeta>
                                                                                                    
                                                                                                    
                                                                                                    
                                                                                                    
                                                                                                    
                                                                                                    
                                                                                                    
                                                                                                    
                                                                                                    
                                                                                                    
                                                                                                    
                                                                                                    
                                                                                                    
                                                                                                    
                                                                                                    
                                                                                                    
                                                                                                    
                                                                                                    
                                                                                                    
                                                                                                    
                           
<?xpacket end="w"?></metadata>
<defs>
    <style>
      .cls-1 {
        fill: #141414;
        fill-rule: evenodd;
        opacity: 0.7;
      }
    </style>
  </defs>
  <path id="Phone_Icon" data-name="Phone Icon" class="cls-1" d="M939.534,5625.06l-2.223,2.22c-1.227,1.23-2.692.64-4.444,0a52.31,52.31,0,0,1-9.157-7,47.567,47.567,0,0,1-6.953-9.1c-0.833-1.62-1.227-3.22,0-4.44l2.223-2.22a1.457,1.457,0,0,1,2.222,0l3.333,4.44a1.672,1.672,0,0,1,0,2.22h0l-1.315,1.31a44.7,44.7,0,0,0,4.092,4.8,38.848,38.848,0,0,0,4.195,3.58l1.36-1.36a1.677,1.677,0,0,1,2.222,0l4.445,3.33a1.57,1.57,0,0,1,0,2.22m-7.846-2.15,1.785-1.78a1.059,1.059,0,0,1,1.414,0l2.828,2.12a0.9,0.9,0,0,1,0,1.41l-1.413,1.41a2.254,2.254,0,0,1-2.324.1,46.735,46.735,0,0,1-8.888-6.66c-3.051-2.81-7.221-9.44-7.221-9.44a2.827,2.827,0,0,1,.1-2.32l1.414-1.42a1.068,1.068,0,0,1,1.414,0l2.121,2.83a1.06,1.06,0,0,1,0,1.41l-1.743,1.75C921.466,5612.73,925.767,5619.27,931.688,5622.91Z" transform="translate(-910 -5598)"/>
</svg>
