<svg xmlns="http://www.w3.org/2000/svg" width="120" height="40" viewBox="0 0 120 40">
  <metadata><?xpacket begin="﻿" id="W5M0MpCehiHzreSzNTczkc9d"?>
<x:xmpmeta xmlns:x="adobe:ns:meta/" x:xmptk="Adobe XMP Core 5.6-c140 79.160451, 2017/05/06-01:08:21        ">
   <rdf:RDF xmlns:rdf="http://www.w3.org/1999/02/22-rdf-syntax-ns#">
      <rdf:Description rdf:about=""/>
   </rdf:RDF>
</x:xmpmeta>
                                                                                                    
                                                                                                    
                                                                                                    
                                                                                                    
                                                                                                    
                                                                                                    
                                                                                                    
                                                                                                    
                                                                                                    
                                                                                                    
                                                                                                    
                                                                                                    
                                                                                                    
                                                                                                    
                                                                                                    
                                                                                                    
                                                                                                    
                                                                                                    
                                                                                                    
                                                                                                    
                           
<?xpacket end="w"?></metadata>
<defs>
    <style>
      .cls-1 {
        fill: #141414;
        fill-rule: evenodd;
      }
    </style>
  </defs>
  <path id="Portland" class="cls-1" d="M1092.97,2758.71a2.222,2.222,0,0,0,1.13.3,2.408,2.408,0,0,0,1.72-.52,3.773,3.773,0,0,0,.88-1.38,17.515,17.515,0,0,0,.65-1.91c0.22-.74.43-1.54,0.63-2.39s0.39-1.72.57-2.61,0.36-1.75.54-2.59a15.728,15.728,0,0,0,5.87-1.36,16.273,16.273,0,0,0,4.36-2.91,13.716,13.716,0,0,0,2.8-3.74,11.518,11.518,0,0,0,1.21-3.89,9.052,9.052,0,0,0-.1-2.33,7.111,7.111,0,0,0-.89-2.52,5.93,5.93,0,0,0-1.99-2.03,6.333,6.333,0,0,0-3.43-.83,17.262,17.262,0,0,0-3.88.4,18.018,18.018,0,0,0-3.07.95,13.721,13.721,0,0,0-2.21,1.11c-0.6.38-1.04,0.66-1.33,0.86a1.516,1.516,0,0,0-.85,1.1,2.817,2.817,0,0,0,.2,1.03,2.524,2.524,0,0,0,.24.43,2.665,2.665,0,0,0,.68.8c0.38-.4.77-0.78,1.18-1.15s0.78-.69,1.14-0.98a11.449,11.449,0,0,1,1.25-.89c-0.16.55-.37,1.32-0.64,2.32s-0.57,2.11-.91,3.34-0.69,2.53-1.05,3.89-0.71,2.69-1.06,3.97-0.67,2.49-.96,3.62-0.53,2.07-.71,2.8a25.531,25.531,0,0,1-.98,3.25,11.519,11.519,0,0,1-.86,1.83,3.8,3.8,0,0,1-.67.87c-0.19.15-.34,0.26-0.43,0.33A3.732,3.732,0,0,0,1092.97,2758.71Zm7.61-18.55c0.2-.9.47-2.08,0.82-3.52s0.8-3.23,1.34-5.38a1.2,1.2,0,0,0-.31-0.57,0.637,0.637,0,0,0-.23-0.16,10.624,10.624,0,0,1,1.62-.6,5.779,5.779,0,0,1,1.65-.24,5.63,5.63,0,0,1,1.75.29,3.849,3.849,0,0,1,1.56.96,4.469,4.469,0,0,1,1.03,1.79,7.146,7.146,0,0,1,.18,2.78,10.554,10.554,0,0,1-.76,3.14,10.681,10.681,0,0,1-1.47,2.53,12,12,0,0,1-1.94,1.96,13.832,13.832,0,0,1-2.17,1.44,12.866,12.866,0,0,1-2.23.95,13.806,13.806,0,0,1-2.02.48c0.13-.7.25-1.34,0.35-1.91s0.19-1.02.25-1.38c0.14-.64.33-1.49,0.58-2.56h0Zm24.36,6.68a23.72,23.72,0,0,0,2.06-1.36c0.63-.46,1.17-0.9,1.64-1.29s0.74-.67.86-0.8a1.82,1.82,0,0,0,.37-0.67,0.618,0.618,0,0,0-.04-0.46,0.3,0.3,0,0,0-.33-0.14,1.34,1.34,0,0,0-.58.34,10.706,10.706,0,0,1-1.08.89c-0.45.34-.94,0.66-1.46,0.98s-1.08.63-1.64,0.92a16.035,16.035,0,0,1-1.62.73c0.02-.18.04-0.39,0.07-0.65s0.03-.47.03-0.65a5.122,5.122,0,0,0-.44-2.21,5.216,5.216,0,0,0-1.06-1.51,4.838,4.838,0,0,0-1.28-.9,3.37,3.37,0,0,0-1.1-.33,1.066,1.066,0,0,1-.19-0.07,0.484,0.484,0,0,0-.18-0.03,5.468,5.468,0,0,0-1.25.15,5.179,5.179,0,0,0-1.2.43,3.707,3.707,0,0,0-.98.72,2.671,2.671,0,0,0-.62,1,7.852,7.852,0,0,0-1,1.46,10.93,10.93,0,0,0-.69,1.59,12.533,12.533,0,0,0-.42,1.56,7.351,7.351,0,0,0-.15,1.4c0,0.6.03,1.24,0.08,1.93a5.962,5.962,0,0,0,.47,1.89,3.624,3.624,0,0,0,1.19,1.45,3.563,3.563,0,0,0,2.17.58,5.251,5.251,0,0,0,2.18-.45,6.057,6.057,0,0,0,1.79-1.24,7.865,7.865,0,0,0,1.36-1.9,11.348,11.348,0,0,0,.92-2.36A10.286,10.286,0,0,0,1124.94,2746.84Zm-6.73-5.03a2.391,2.391,0,0,1,1.23-.35,0.871,0.871,0,0,1,.69.35,2.72,2.72,0,0,1,.47.9,5.384,5.384,0,0,1,.26,1.21,6.948,6.948,0,0,1,0,1.29,2.5,2.5,0,0,1-.09.62q-0.075.345-.18,0.78c-0.11.02-.23,0.04-0.34,0.05s-0.22.02-.34,0.02a3.491,3.491,0,0,1-1.63-.32,2.059,2.059,0,0,1-.86-0.78,2.6,2.6,0,0,1-.34-1.05,8.484,8.484,0,0,1-.07-1.11,1.89,1.89,0,0,1,.1-0.63A4.007,4.007,0,0,1,1118.21,2741.81Zm-3.12,5.57c0.09-.45.2-0.9,0.33-1.37a4.863,4.863,0,0,0,1.44,1.91,3.4,3.4,0,0,0,2.21.75,3.777,3.777,0,0,0,.49-0.02c0.14-.01.3-0.02,0.45-0.04a8.8,8.8,0,0,1-.55,1.21,5.736,5.736,0,0,1-.73,1.03,3.524,3.524,0,0,1-.91.73,2.233,2.233,0,0,1-1.11.28,1.309,1.309,0,0,1-.88-0.28,1.911,1.911,0,0,1-.54-0.73,3.178,3.178,0,0,1-.27-1.03,9.232,9.232,0,0,1-.07-1.18A6.311,6.311,0,0,1,1115.09,2747.38Zm10.58,4.76c0.28-.45.62-1,1.03-1.66s0.83-1.35,1.3-2.11,0.89-1.47,1.31-2.16,0.78-1.28,1.1-1.79,0.52-.84.61-1a3.908,3.908,0,0,1,.57.2,1.816,1.816,0,0,0,.74.13c0.2,0,.36,0,0.46-0.01s0.18-.02.23-0.02a0.881,0.881,0,0,0,.17-0.02,2.111,2.111,0,0,1,.29-0.01,0.481,0.481,0,0,1,.44.23,1.042,1.042,0,0,1,.13.53,2.718,2.718,0,0,1-.35,1.15c-0.24.45-.55,1-0.93,1.64-0.16.31-.33,0.63-0.52,0.95s-0.37.64-.54,0.96-0.32.64-.44,0.93a2.673,2.673,0,0,0-.22.85,3.507,3.507,0,0,0,.12,1.08,3.182,3.182,0,0,0,.5,1.07,3.059,3.059,0,0,0,.93.81,2.881,2.881,0,0,0,1.45.33,3.643,3.643,0,0,0,1.77-.5,10.873,10.873,0,0,0,1.86-1.28,16.843,16.843,0,0,0,1.77-1.72c0.56-.64,1.08-1.25,1.54-1.85s0.85-1.14,1.18-1.63,0.56-.84.69-1.06a1.231,1.231,0,0,0,.25-0.8,0.485,0.485,0,0,0-.25-0.4,0.632,0.632,0,0,0-.47,0,0.876,0.876,0,0,0-.44.37c-0.14.17-.34,0.46-0.63,0.86s-0.62.85-1.02,1.35-0.85,1.01-1.32,1.53-0.95.99-1.43,1.43a10.231,10.231,0,0,1-1.42,1.06,2.5,2.5,0,0,1-1.27.42,1.1,1.1,0,0,1-.94-0.27,1.8,1.8,0,0,1-.24-0.7,2.588,2.588,0,0,1,.41-1.5,17.61,17.61,0,0,1,.94-1.49c0.52-.71.96-1.36,1.32-1.96a2.755,2.755,0,0,0,.44-1.73,6.918,6.918,0,0,0-.16-0.88,3.178,3.178,0,0,0-.35-0.9,2.249,2.249,0,0,0-.61-0.69,1.5,1.5,0,0,0-.94-0.29,2.679,2.679,0,0,0-.69.07,3.164,3.164,0,0,1-.76.07,1.194,1.194,0,0,1-.54-0.09,1.079,1.079,0,0,1-.27-0.15,3.239,3.239,0,0,0,.5-1.19,3.11,3.11,0,0,0,.07-1.1,2.857,2.857,0,0,0-.46-1.23,1.45,1.45,0,0,0-1.33-.6,1.621,1.621,0,0,0-1.04.47,5.563,5.563,0,0,0-.98,1.11,6.236,6.236,0,0,0-.71,1.35,2.227,2.227,0,0,0-.2,1.13,1.245,1.245,0,0,0,.2.64c0.09,0.1.26,0.27,0.5,0.49-0.13.24-.34,0.63-0.64,1.18s-0.61,1.15-.96,1.84-0.71,1.41-1.1,2.18-0.73,1.47-1.06,2.12-0.61,1.22-.84,1.68-0.39.77-.46,0.9a0.969,0.969,0,0,0-.13.66,0.449,0.449,0,0,0,.28.35,0.656,0.656,0,0,0,.51-0.03,1.173,1.173,0,0,0,.52-0.48C1125.21,2752.87,1125.39,2752.6,1125.67,2752.14Zm26.54-6.51c-0.34.43-.73,0.91-1.18,1.45s-0.94,1.07-1.47,1.62-1.05,1.07-1.57,1.53a9.1,9.1,0,0,1-1.5,1.12,2.151,2.151,0,0,1-1.23.35,1.78,1.78,0,0,1-1.08-.4,2.484,2.484,0,0,1-.63-1.08,5.051,5.051,0,0,1-.05-2.18c0.59-1.33,1.12-2.58,1.59-3.76s0.88-2.21,1.21-3.12c0.38-1.04.72-2,1.01-2.89a9.3,9.3,0,0,0,.33-1.08c0.07-.35.16-0.69,0.25-1.05,0.18,0,.35,0,0.52-0.01a3.777,3.777,0,0,1,.46-0.02q1.08,0,1.89.06c0.54,0.05,1,.09,1.4.14a9.38,9.38,0,0,1,1.01.16,4.954,4.954,0,0,0,.76.14,0.743,0.743,0,0,0,.61-0.14,1.034,1.034,0,0,0,.38-0.48,1.23,1.23,0,0,0,.11-0.55,0.354,0.354,0,0,0-.26-0.33c-0.15-.04-0.39-0.13-0.71-0.25a9.853,9.853,0,0,0-1.24-.36,15.957,15.957,0,0,0-1.88-.33,17.188,17.188,0,0,0-2.51-.15,18.026,18.026,0,0,0,.37-2.8,2.957,2.957,0,0,0-.14-1.36,0.809,0.809,0,0,0-.54-0.25,3.3,3.3,0,0,0-.77,0,3.662,3.662,0,0,0-.76.17,0.843,0.843,0,0,0-.46.28,7.748,7.748,0,0,0-.76,1.65c-0.28.78-.56,1.71-0.86,2.77-0.38.07-.77,0.12-1.16,0.17s-0.8.07-1.23,0.1c-0.59.02-1.13,0.01-1.62-.02s-0.96-.07-1.39-0.12a0.77,0.77,0,0,0-.45.19,1.561,1.561,0,0,0-.42.43,1.194,1.194,0,0,0-.21.5,0.363,0.363,0,0,0,.24.38,8.957,8.957,0,0,0,3.48.73,8,8,0,0,0,1.04-.07c0.39-.04.77-0.08,1.15-0.13-0.32,1.29-.61,2.62-0.89,4.01s-0.54,2.68-.76,3.88-0.41,2.28-.54,3.19-0.22,1.56-.24,1.91a4.414,4.414,0,0,0,.1,1.38,4.034,4.034,0,0,0,.59,1.38,3.372,3.372,0,0,0,1.17,1.07,3.206,3.206,0,0,0,3.78-.4,17.533,17.533,0,0,0,2.36-2.11,30.933,30.933,0,0,0,2.31-2.74,22.167,22.167,0,0,0,1.77-2.73,1.276,1.276,0,0,0,.19-0.63,0.415,0.415,0,0,0-.15-0.33,0.4,0.4,0,0,0-.36-0.05,0.519,0.519,0,0,0-.35.25C1152.78,2744.89,1152.55,2745.2,1152.21,2745.63Zm-1.52,7.55a2.012,2.012,0,0,0,.4.34,1.96,1.96,0,0,0,.48.2,3.046,3.046,0,0,0,.5.04,1.437,1.437,0,0,0,.44-0.07,0.929,0.929,0,0,0,.41-0.23q1.545-6.015,2.58-9.97t1.64-6.25c0.47-1.8.84-3.17,1.11-4.12,0.11-.49.21-0.94,0.3-1.36a9.531,9.531,0,0,0,.09-1.04,0.782,0.782,0,0,0-.19-0.66,0.4,0.4,0,0,0-.3-0.22,2.756,2.756,0,0,0-.51-0.05,4.242,4.242,0,0,0-.67.07c-0.25.05-.5,0.1-0.75,0.17-0.2.04-.41,0.1-0.62,0.16a2.881,2.881,0,0,0-.59.27,4.675,4.675,0,0,1,.1,1.03,7.923,7.923,0,0,1-.07,1.1c-0.04.39-.1,0.8-0.17,1.23-0.13.59-.38,1.67-0.74,3.22q-0.465,1.965-1.37,5.68-0.885,3.72-2.37,9.87A1.27,1.27,0,0,0,1150.69,2753.18Zm25.56-7.6a0.775,0.775,0,0,0-.05-0.6,0.369,0.369,0,0,0-.4-0.15,1.043,1.043,0,0,0-.54.35c-0.14.18-.36,0.46-0.66,0.83s-0.65.81-1.03,1.3-0.79.99-1.23,1.51-0.86,1-1.27,1.43a9.685,9.685,0,0,1-1.14,1.06,1.658,1.658,0,0,1-.88.42,0.984,0.984,0,0,1-.63-0.18,1.2,1.2,0,0,1-.32-0.49,3.032,3.032,0,0,1-.12-0.64,4.513,4.513,0,0,1,.02-0.65c0.07-.33.12-0.61,0.17-0.83s0.08-.42.12-0.58,0.07-.34.1-0.5,0.07-.35.12-0.55q0.33-1.53.54-2.49,0.2-.975.3-1.53a5.012,5.012,0,0,0,.1-0.78,0.886,0.886,0,0,0-.03-0.29,0.824,0.824,0,0,0-.27-0.03c-0.11,0-.28.01-0.49,0.03s-0.48.07-.79,0.14a2.366,2.366,0,0,0,.55-1.71,1.623,1.623,0,0,0-.62-0.99,4.187,4.187,0,0,0-1.49-.53,3.946,3.946,0,0,0-1.95.53,10.165,10.165,0,0,0-2.4,1.78,14.869,14.869,0,0,0-2.24,2.84,12.035,12.035,0,0,0-1.5,3.69,7.75,7.75,0,0,0-.27,2.58,4.383,4.383,0,0,0,.47,1.76,2.412,2.412,0,0,0,.91,1,2.023,2.023,0,0,0,1.01.31,7.023,7.023,0,0,0,2.03-.43,7.875,7.875,0,0,0,1.85-1.05,6.863,6.863,0,0,0,1.79-2.04,5.544,5.544,0,0,0,.12,1.5,5.624,5.624,0,0,0,.32.96,1.581,1.581,0,0,0,.51.66,1.917,1.917,0,0,0,.7.29,3.465,3.465,0,0,0,.86.05,4.474,4.474,0,0,0,.9-0.17,3.977,3.977,0,0,0,.78-0.33,7.756,7.756,0,0,0,1.26-1.15c0.51-.54,1.02-1.14,1.55-1.79s1.04-1.31,1.54-1.96,0.9-1.21,1.21-1.65A2.336,2.336,0,0,0,1176.25,2745.58Zm-10.66,2.93a7.676,7.676,0,0,1-.64.79,6.993,6.993,0,0,1-.88.83,5.038,5.038,0,0,1-.98.65,2.216,2.216,0,0,1-.96.27,1.1,1.1,0,0,1-.84-0.35,1.4,1.4,0,0,1-.27-0.85,6.077,6.077,0,0,1,.05-1.51,12.078,12.078,0,0,1,.42-1.85,8.647,8.647,0,0,1,.81-1.84,11.448,11.448,0,0,1,2.14-2.88c0.62-.52,1.05-0.68,1.3-0.48a0.843,0.843,0,0,1,.14.37,2.154,2.154,0,0,1-.02.55,3.309,3.309,0,0,1-.32.88,3.413,3.413,0,0,1,.54-0.1,2.059,2.059,0,0,0,.44-0.1,1.861,1.861,0,0,1,.37-0.1c0.09-.02.1,0.15,0.05,0.51s-0.14.83-.25,1.38-0.25,1.13-.41,1.73-0.29,1.12-.4,1.56A2.087,2.087,0,0,1,1165.59,2748.51Zm19.5,5a9.415,9.415,0,0,0,1.67-1.17,13.474,13.474,0,0,0,1.62-1.59c0.52-.59,1.01-1.17,1.46-1.75s0.83-1.11,1.16-1.62,0.57-.92.73-1.23a2.091,2.091,0,0,0,.27-0.88,0.5,0.5,0,0,0-.16-0.45,0.4,0.4,0,0,0-.42.03,1.742,1.742,0,0,0-.57.56c-0.29.45-.72,1.03-1.28,1.75s-1.16,1.42-1.79,2.11a15.883,15.883,0,0,1-1.88,1.76,2.736,2.736,0,0,1-1.53.73,0.557,0.557,0,0,1-.66-0.53,3.765,3.765,0,0,1,.15-1.26c0.25-.75.46-1.45,0.63-2.08s0.31-1.18.42-1.64l0.37-1.47a5.8,5.8,0,0,0,.25-1.96,4.324,4.324,0,0,0-.33-1.54,2.5,2.5,0,0,0-.8-1.02,1.939,1.939,0,0,0-1.15-.36,3.815,3.815,0,0,0-1.51.31,6.342,6.342,0,0,0-1.4.82,8.552,8.552,0,0,0-1.22,1.11c-0.37.41-.7,0.82-0.99,1.21,0.13-.37.24-0.74,0.33-1.09,0.09-.31.18-0.61,0.27-0.88a5.979,5.979,0,0,1,.24-0.65,1.579,1.579,0,0,0-.46-0.25,3.173,3.173,0,0,0-.49-0.12,4.886,4.886,0,0,0-.54-0.03,2.63,2.63,0,0,0-.57.13,3.238,3.238,0,0,0-.52.19,2.008,2.008,0,0,0-.49.31c-0.23.84-.42,1.62-0.59,2.33s-0.31,1.33-.42,1.86c-0.14.62-.26,1.18-0.38,1.69-0.15.65-.32,1.32-0.5,2.03s-0.36,1.38-.52,2.01-0.32,1.18-.44,1.65-0.2.76-.22,0.89c-0.05.2,0.07,0.3,0.35,0.3a2.988,2.988,0,0,0,1-.2,5.334,5.334,0,0,0,1.08-.51,1.283,1.283,0,0,0,.6-0.65c0.07-.31.15-0.64,0.24-0.98s0.19-.74.29-1.2,0.22-.96.35-1.53,0.31-1.22.51-1.97c0.38-.56.77-1.09,1.16-1.61a14.281,14.281,0,0,1,1.18-1.38,6.029,6.029,0,0,1,1.17-.95,2.15,2.15,0,0,1,1.11-.35,0.564,0.564,0,0,1,.57.48,3.365,3.365,0,0,1,.07,1.23,11.509,11.509,0,0,1-.28,1.66q-0.225.915-.48,1.83c-0.17.61-.33,1.18-0.49,1.7s-0.27.93-.33,1.24a3.152,3.152,0,0,0-.07,1.32,2.472,2.472,0,0,0,.44,1.08,2.316,2.316,0,0,0,.89.74,2.9,2.9,0,0,0,1.33.29A3.278,3.278,0,0,0,1185.09,2753.51Zm17.18-10.24q0.96-1.845,1.71-3.69a30.47,30.47,0,0,0,1.19-3.57,15.359,15.359,0,0,0,.53-3.19,14.8,14.8,0,0,0,0-1.9,2.839,2.839,0,0,0-.26-1.04,0.748,0.748,0,0,0-.45-0.43,1.953,1.953,0,0,0-.61-0.09,1.714,1.714,0,0,0-.57.1,4.469,4.469,0,0,0-.58.2,3.137,3.137,0,0,0-.64.4c-0.36,1.18-.69,2.29-0.98,3.36s-0.55,2-.77,2.82c-0.25.96-.49,1.84-0.71,2.66-0.14.55-.27,1.14-0.41,1.76s-0.28,1.25-.44,1.9a5,5,0,0,0-.32-1,4.265,4.265,0,0,0-.55-0.98,2.955,2.955,0,0,0-.81-0.73,2.015,2.015,0,0,0-1.05-.28,5.129,5.129,0,0,0-2.61.74,8.259,8.259,0,0,0-2.33,2.03,11.25,11.25,0,0,0-1.71,3.01,11.432,11.432,0,0,0-.77,3.65,5.905,5.905,0,0,0,.2,2.1,4.2,4.2,0,0,0,.69,1.39,2.485,2.485,0,0,0,.96.77,2.669,2.669,0,0,0,1.02.23,5.156,5.156,0,0,0,2.75-.91,14.682,14.682,0,0,0,2.85-2.48c-0.05.38-.08,0.64-0.1,0.8a2.441,2.441,0,0,0,.15,1.06,3.354,3.354,0,0,0,.52.97,3.072,3.072,0,0,0,.76.69,1.627,1.627,0,0,0,.89.27,3.137,3.137,0,0,0,1.44-.42,10.071,10.071,0,0,0,1.65-1.08,16.89,16.89,0,0,0,1.72-1.52c0.58-.58,1.12-1.17,1.64-1.77s0.99-1.18,1.42-1.74,0.77-1.06,1.04-1.48a1.3,1.3,0,0,0,.27-0.67,0.428,0.428,0,0,0-.13-0.36,0.465,0.465,0,0,0-.36-0.07,0.829,0.829,0,0,0-.42.24,9.534,9.534,0,0,0-.62.73c-0.31.37-.68,0.81-1.12,1.31s-0.91,1.02-1.43,1.58-1.04,1.06-1.55,1.53a14.474,14.474,0,0,1-1.47,1.16,2.253,2.253,0,0,1-1.16.47,1,1,0,0,1-.75-0.37,1.665,1.665,0,0,1-.3-1.2,14.945,14.945,0,0,1,.18-1.49c0.11-.62.21-1.28,0.33-1.96A37.653,37.653,0,0,0,1202.27,2743.27Zm-5.03,5.1a18.091,18.091,0,0,1-1.28,1.37,9.135,9.135,0,0,1-1.42,1.13,2.592,2.592,0,0,1-1.33.46,1.455,1.455,0,0,1-1.28-.7,3.9,3.9,0,0,1-.41-2.29,8.43,8.43,0,0,1,.54-2.26,13.523,13.523,0,0,1,1.18-2.38,10.637,10.637,0,0,1,1.52-1.89,2.345,2.345,0,0,1,1.59-.78,0.989,0.989,0,0,1,.84.41,3,3,0,0,1,.46.97,5.114,5.114,0,0,1,.18,1.06c0.03,0.34.04,0.58,0.04,0.72a1,1,0,0,0,.13.58,0.4,0.4,0,0,0,.51.01l0.12-.06a1.054,1.054,0,0,1,.11-0.07c-0.11.44-.2,0.87-0.28,1.3s-0.17.84-.26,1.26C1197.96,2747.52,1197.64,2747.91,1197.24,2748.37Z" transform="translate(-1090.5 -2723.5)"/>
</svg>
