<svg xmlns="http://www.w3.org/2000/svg" width="52" height="52" viewBox="0 0 52 52">
  <metadata><?xpacket begin="﻿" id="W5M0MpCehiHzreSzNTczkc9d"?>
<x:xmpmeta xmlns:x="adobe:ns:meta/" x:xmptk="Adobe XMP Core 5.6-c140 79.160451, 2017/05/06-01:08:21        ">
   <rdf:RDF xmlns:rdf="http://www.w3.org/1999/02/22-rdf-syntax-ns#">
      <rdf:Description rdf:about=""/>
   </rdf:RDF>
</x:xmpmeta>
                                                                                                    
                                                                                                    
                                                                                                    
                                                                                                    
                                                                                                    
                                                                                                    
                                                                                                    
                                                                                                    
                                                                                                    
                                                                                                    
                                                                                                    
                                                                                                    
                                                                                                    
                                                                                                    
                                                                                                    
                                                                                                    
                                                                                                    
                                                                                                    
                                                                                                    
                                                                                                    
                           
<?xpacket end="w"?></metadata>
<defs>
    <style>
      .cls-1 {
        fill: #141414;
        fill-rule: evenodd;
      }
    </style>
  </defs>
  <path id="Settings_Icon" data-name="Settings Icon" class="cls-1" d="M888,1477v-4h-2v4a8.071,8.071,0,0,0,0,16v22h2v-22A8.071,8.071,0,0,0,888,1477Zm-1,14a6,6,0,1,1,6-6A6.006,6.006,0,0,1,887,1491Zm18,3v-21h-2v21a8.07,8.07,0,0,0,0,16v5h2v-5A8.071,8.071,0,0,0,905,1494Zm-1,14a6,6,0,1,1,6-6A6.015,6.015,0,0,1,904,1508Zm18-23v-12h-2v12a8.071,8.071,0,0,0,0,16v14h2v-14A8.071,8.071,0,0,0,922,1485Zm-1,14a6,6,0,1,1,6-6A6.005,6.005,0,0,1,921,1499Z" transform="translate(-878 -1468)"/>
</svg>
