<svg xmlns="http://www.w3.org/2000/svg" width="120" height="40" viewBox="0 0 120 40">
  <metadata><?xpacket begin="﻿" id="W5M0MpCehiHzreSzNTczkc9d"?>
<x:xmpmeta xmlns:x="adobe:ns:meta/" x:xmptk="Adobe XMP Core 5.6-c140 79.160451, 2017/05/06-01:08:21        ">
   <rdf:RDF xmlns:rdf="http://www.w3.org/1999/02/22-rdf-syntax-ns#">
      <rdf:Description rdf:about=""/>
   </rdf:RDF>
</x:xmpmeta>
                                                                                                    
                                                                                                    
                                                                                                    
                                                                                                    
                                                                                                    
                                                                                                    
                                                                                                    
                                                                                                    
                                                                                                    
                                                                                                    
                                                                                                    
                                                                                                    
                                                                                                    
                                                                                                    
                                                                                                    
                                                                                                    
                                                                                                    
                                                                                                    
                                                                                                    
                                                                                                    
                           
<?xpacket end="w"?></metadata>
<defs>
    <style>
      .cls-1 {
        fill: #141414;
        fill-rule: evenodd;
      }
    </style>
  </defs>
  <path id="Singleton" class="cls-1" d="M398.922,2759.71c5.727-1.13,22.077-3.32,28.111-3.53,3.7-.12,5.164.33,5.243,1.99,0.017,0.36-.251.8-1.31,0.84-10.988.38-28.046,2.92-32.777,2.98a2.065,2.065,0,0,1-.248.01c-0.082,0-.165-0.01-0.246-0.01a3.756,3.756,0,0,1-.479-0.03c-0.311-.03-0.6-0.07-0.851-0.12a0.979,0.979,0,0,1-.837-0.44c-0.017-.85,1.788-1.37,3.394-1.69h0Zm107.113-5.5c-2.4-.18-5.938-0.38-10.08-0.55s-8.887-.26-13.693-0.25c-9.6.01-19.473,0.57-24.832,1.09a41.081,41.081,0,0,0-6.921,1.07,3.832,3.832,0,0,0-1.5.73,1.175,1.175,0,0,0-.316.45,1.071,1.071,0,0,0-.056.25c0,0.05,0,.09,0,0.14s0.006,0.09.013,0.14a0.629,0.629,0,0,0,.576.42,3.151,3.151,0,0,0,.78.09,5.131,5.131,0,0,0,.546-0.01c0.2-.01.42-0.02,0.659-0.05,19.87-1.82,48.576-.96,56.377-1.4,2.188-.1,4.355-0.48,4.316-0.79-0.1-.75-3.162-1.11-5.871-1.33h0Zm-108.677-16.38c1.009,4.98,6.954,4.72,7.48,8.88,0.249,2.27-1.357,3.44-3.186,3.72-1.685.26-2.3-.9-2.445-2.27-0.16-1.52.294-2.77,0.124-4.02-0.079-.59-0.765-0.53-1.146-0.46a3.785,3.785,0,0,0-2.379,2.21,7.762,7.762,0,0,0-.653,1.86,7.267,7.267,0,0,0-.14.97c-0.011.16-.017,0.32-0.016,0.48s0.008,0.31.022,0.46c0.38,3.94,3.483,5.31,6.727,4.89,4.085-.5,8.515-4.29,7.979-8.94-0.461-3.76-2.772-4.86-5.036-6.16a3.719,3.719,0,0,0,2.767-4.32,4.743,4.743,0,0,0-5.679-3.59c-3.088.46-5.219,2.75-4.419,6.29h0Zm3.028-2.14a2.558,2.558,0,0,1,2-1.36,1.884,1.884,0,0,1,2.306,1.11,4.859,4.859,0,0,1-.977,3.47,8.748,8.748,0,0,1-3.329-3.22h0Zm13.991,17.1c3.192-.38,6.188-4.71,5.862-7.4-0.083-.72-0.246-1.07-0.537-1.03-0.535.04-2.72,4.21-3.876,4.39a0.928,0.928,0,0,1-1.117-.85c-0.16-1.74.766-5.4,0.376-7.98-0.1-.66-0.986-2.66-2.21-2.48-2.083.29-2.292,5.97-1.954,9.69,0.334,3.14,1.173,5.93,3.456,5.66h0Zm-1.194-17.73c1.5-.21,3.27-1.35,2.709-3.61-0.162-.69-1.694-2.89-2.97-2.74-1.289.17-1.406,2.76-1.157,3.78a6.172,6.172,0,0,0,1.418,2.57h0Zm16.826,16.02c3.17-.33,6.142-4.75,5.791-7.44-0.088-.73-0.254-1.08-0.543-1.06-0.532.01-2.667,4.15-3.815,4.32-0.232.02-.337-0.17-0.373-0.53-0.12-1.31.731-4.59,0.256-7.35-0.343-2.04-1.975-3.11-4.574-2.83a4.257,4.257,0,0,0-3.152,1.77c-0.529-.81-1.525-1.8-2.336-1.7a1.319,1.319,0,0,0-.975.93c-1.638,3.64-1.2,6.48-.7,12.07,0.171,2.03.567,3.32,1.529,3.21a1.759,1.759,0,0,0,.659-0.25c1.892-1.14,2.366-1.89,2.3-2.75-0.076-.95-0.782-2.02-0.97-3.74-0.008-.07-0.016-0.15-0.024-0.22,0.191-2.64,1.332-5.97,2.858-6.14,1.012-.12,1.374.28,1.471,0.9,0.265,1.74-.414,3.2-0.069,6.63,0.217,2.2.841,4.35,2.667,4.18h0Zm15.3-17.01a1.167,1.167,0,0,0-1.076,1.28,9.329,9.329,0,0,0-3.382-.41,6.933,6.933,0,0,0-5.261,3.46,11.207,11.207,0,0,0-1.208,6.93c0.33,3.14,2.291,5.33,4.979,5.11a5.22,5.22,0,0,0,3.978-2.19c-0.088.8-.181,1.66-0.313,2.51-4.185,1.59-7.57,1.8-7.491,5.22a6.771,6.771,0,0,0,1.374,4.02,4.474,4.474,0,0,0,1.432,1.21,3.263,3.263,0,0,0,.84.32,3.351,3.351,0,0,0,.9.09c4.14-.19,5.188-4.67,5.968-8.99,3.951-2.88,6.582-7.85,6.265-10.19-0.087-.72-0.252-1.08-0.54-1.07-0.777.04-1.755,3.28-4.9,6.85,0.863-5.07,1.424-10.08,1.159-11.56-0.113-.68-1.56-2.66-2.719-2.59h0Zm-4.868,12.44c-1.3.1-1.76-1.16-1.905-2.41a6.768,6.768,0,0,1,5.566-7.54c-0.19,1.69-.469,4.36-0.613,6.34-0.474,2.34-1.81,3.52-3.048,3.61h0Zm-0.341,11.57a1.871,1.871,0,0,1-1.907-1.79c-0.012-.88,1.287-0.84,4.065-1.82-0.566,1.98-1.3,3.56-2.158,3.61h0Zm17.774-8.98c3.137-.19,5.947-4.42,5.615-7.05-0.083-.71-0.245-1.07-0.532-1.07a1.551,1.551,0,0,0-.926.92c-0.838,1.41-1.986,2.99-4.024,3.07-1.438.07-2.565-1.08-2.852-3.38-0.052-.41-0.106-0.82-0.161-1.22,2.9-5,6.788-7.76,6.306-11.04a2.753,2.753,0,0,0-3.062-2.33c-6.2.32-8.064,7.91-7.071,15.57,0.532,4.56,3.539,6.72,6.707,6.53h0Zm-0.2-19.47a0.554,0.554,0,0,1,.594.57c0.271,1.66-1.5,2.64-3.45,6.54,0.048-4.6,1.585-7.05,2.856-7.11h0Zm11.092,15.21c-1.061.02-2.776-.39-2.962-2.13-0.028-.27-0.057-0.53-0.087-0.79,2.863-1.53,6.492-2.04,6.042-5.32-0.216-1.55-1.564-2.63-3.747-2.64-4.081.06-7.015,3.54-6.337,9.66,0.358,3.57,2.9,5.38,5.478,5.28,6.564-.26,8.272-5.28,8.068-6.88-0.074-.7-0.23-1.06-0.517-1.06C474.051,2740.89,472.553,2744.74,468.766,2744.84Zm-1.519-8.46a0.861,0.861,0,0,1,1,.69c0.165,1.15-1.119,1.66-2.585,2.77,0.041-1.87.428-3.46,1.587-3.46h0Zm6-2.2a2.15,2.15,0,0,0-.473,2.02,0.353,0.353,0,0,0,.386.28c0.434,0.01.868,0.01,1.3,0.02a28.026,28.026,0,0,0,0,5.66c0.361,3.33,1.275,6.52,3.152,6.51,3.111-.07,6.931-3.89,6.682-6.41-0.064-.69-0.213-1.05-0.5-1.06a1.433,1.433,0,0,0-.948.82c-0.8,1.21-3.09,2.76-3.775,2.76-0.457-.01-0.725-0.9-0.851-2.19a50.763,50.763,0,0,1-.1-6.13c0.84,0.02,2.451.21,2.915,0.23,0.434,0.01.636-1.5,0.6-1.84s-0.078-.44-0.37-0.45c-0.643-.02-1.551-0.08-2.9-0.15q0.48-.945.975-1.89c-0.419-1.12-.876-2.18-2.15-2.21-1.068-.02-1.892,1.65-2.38,4.03-0.637.02-1.191,0.01-1.569,0h0Zm16.639,0.48c-5-.25-7.593,3.26-7.136,7.81,0.3,3.04,2.3,6.43,6.6,6.52a6.512,6.512,0,0,0,5.281-2.8,8.723,8.723,0,0,0,1.822.28,2.931,2.931,0,0,0,3.341-3.29c-0.037-.66-0.173-1.04-0.458-1.06-0.716-.06-1.007,1.66-3.138,1.52a0.982,0.982,0,0,0-.171-0.01,7.4,7.4,0,0,0,.456-2.95,3.175,3.175,0,0,0-3.015-3.24,3.041,3.041,0,0,0-3.513,3.34,5.933,5.933,0,0,0,2.343,4.24,3.509,3.509,0,0,1-2.089.51,3.416,3.416,0,0,1-3.3-3.37c-0.323-3.46,1.847-5.53,5.209-5.33,1.687,0.12,2.256-.03,2.24-0.28-0.049-.79-2.3-1.76-4.473-1.89h0Zm3.373,6.07c-0.035-.45.175-1.06,0.521-1.03a0.9,0.9,0,0,1,.7.98,4.556,4.556,0,0,1-.336,2,3.081,3.081,0,0,1-.887-1.95h0Zm15.7,9.04c3.045,0.15,6.043-2.7,6.049-5.06,0-.08,0-0.15-0.006-0.22s-0.01-.14-0.017-0.2a1.451,1.451,0,0,0-.07-0.31,0.376,0.376,0,0,0-.3-0.28c-0.559-.08-3.008,2.99-4.086,2.9a0.412,0.412,0,0,1-.323-0.5c-0.036-1.11,1.073-3.73,1.116-6.42,0.032-1.97-1.321-3.36-3.985-3.61a4.3,4.3,0,0,0-3.465,1.02c-0.393-.86-1.2-2.01-2.025-2.08a1.289,1.289,0,0,0-1.135.67c-2.2,3.07-1.984,5.74-1.718,10.86,0.095,1.85.446,3.08,1.375,3.11a1.7,1.7,0,0,0,.64-0.12c1.853-.72,2.333-1.28,2.3-2.04-0.036-.83-0.675-1.89-0.752-3.45,0-.06-0.007-0.13-0.01-0.2,0.324-2.29,1.865-5.1,3.417-4.95,1.015,0.1,1.308.55,1.316,1.13,0.025,1.64-.822,2.84-0.7,5.84,0.077,1.92.623,3.79,2.383,3.91h0Z" transform="translate(-395 -2724.5)"/>
</svg>
